SplineFontDB: 3.2
FontName: NewHall-BoldItalic
FullName: NewHall Bold Italic 
FamilyName: NewHall
Weight: Bold
Copyright: (c) RISC OS Developments Ltd, released under Apache License 2.0
Version: 1
ItalicAngle: -15.5
UnderlinePosition: 0
UnderlineWidth: 0
Ascent: 400
Descent: 100
InvalidEm: 0
LayerCount: 2
Layer: 0 0 "Back" 1
Layer: 1 0 "Fore" 0
StyleMap: 0x0021
FSType: 0
OS2Version: 0
OS2_WeightWidthSlopeOnly: 0
OS2_UseTypoMetrics: 0
CreationTime: 1653360705
ModificationTime: 1653360706
PfmFamily: 17
TTFWeight: 700
TTFWidth: 5
LineGap: 45
VLineGap: 45
OS2TypoAscent: 0
OS2TypoAOffset: 1
OS2TypoDescent: 0
OS2TypoDOffset: 1
OS2TypoLinegap: 45
OS2WinAscent: 0
OS2WinAOffset: 1
OS2WinDescent: 0
OS2WinDOffset: 1
HheadAscent: 0
HheadAOffset: 1
HheadDescent: 0
HheadDOffset: 1
DEI: 91125
Encoding: Custom
UnicodeInterp: none
NameList: AGL For New Fonts
DisplaySize: -24
AntiAlias: 1
FitToEm: 0
BeginChars: 256 208

StartChar: exclam
Encoding: 33 33 1
Width: 166
VWidth: 0
Flags: HMW
LayerCount: 2
Fore
SplineSet
78 5 m 0
 61 -12 33 -12 16 5 c 0
 -1 22 -1 50 16 67 c 0
 33 84 61 84 78 67 c 0
 95 50 95 22 78 5 c 0
76 100 m 0
 53 107 l 0
 94 267 69 330 98 359 c 0
 112 373 140 373 154 359 c 0
 199 314 126 262 76 100 c 0
EndSplineSet
EndChar

StartChar: quotedbl
Encoding: 34 34 2
Width: 200
VWidth: 0
Flags: HMW
LayerCount: 2
Fore
SplineSet
68 206 m 0
 50 213 l 0
 60 278 55 345 71 361 c 0
 82 372 106 372 117 361 c 0
 148 330 114 302 68 206 c 0
193 206 m 0
 175 213 l 0
 185 278 180 345 196 361 c 0
 207 372 231 372 242 361 c 0
 273 330 239 302 193 206 c 0
EndSplineSet
EndChar

StartChar: numbersign
Encoding: 35 35 3
Width: 287
VWidth: 0
Flags: HMW
LayerCount: 2
Fore
SplineSet
45 244 m 0
 98 244 l 0
 115 353 l 0
 148 353 l 0
 131 244 l 0
 192 244 l 0
 209 353 l 0
 242 353 l 0
 225 244 l 0
 275 244 l 0
 275 211 l 0
 220 211 l 0
 210 145 l 0
 259 145 l 0
 259 112 l 0
 205 112 l 0
 188 0 l 0
 155 0 l 0
 172 112 l 0
 111 112 l 0
 94 0 l 0
 61 0 l 0
 78 112 l 0
 29 112 l 0
 29 145 l 0
 83 145 l 0
 93 211 l 0
 45 211 l 0
 45 244 l 0
126 211 m 0
 116 145 l 0
 177 145 l 0
 187 211 l 0
 126 211 l 0
EndSplineSet
EndChar

StartChar: dollar
Encoding: 36 36 4
Width: 287
VWidth: 0
Flags: HMW
LayerCount: 2
Fore
SplineSet
145 216 m 0
 177 332 l 0
 159 333 136 326 120 310 c 0
 95 285 95 256 120 231 c 0
 128 223 136 221 145 216 c 0
146 136 m 0
 112 15 l 0
 137 15 159 21 175 37 c 0
 199 61 199 95 178 116 c 0
 167 127 157 130 146 136 c 0
90 17 m 0
 125 145 l 0
 107 154 93 159 75 176 c 0
 39 213 39 273 84 318 c 0
 114 348 151 354 183 353 c 0
 196 400 l 0
 219 400 l 0
 205 350 l 0
 225 346 244 337 259 322 c 0
 286 295 286 256 265 235 c 0
 251 221 230 221 213 238 c 0
 203 248 203 269 219 285 c 0
 224 290 250 294 230 314 c 0
 221 323 211 323 199 328 c 0
 165 207 l 0
 179 198 200 190 220 170 c 0
 257 133 257 74 216 33 c 0
 183 0 143 -8 106 -8 c 0
 88 -72 l 0
 65 -72 l 0
 83 -5 l 0
 59 -2 40 8 24 24 c 0
 -4 52 -4 94 15 113 c 0
 31 129 54 129 70 113 c 0
 83 100 83 82 72 71 c 0
 64 63 30 56 52 34 c 0
 62 24 75 22 90 17 c 0
EndSplineSet
EndChar

StartChar: percent
Encoding: 37 37 5
Width: 444
VWidth: 0
Flags: HMW
LayerCount: 2
Fore
SplineSet
363 29 m 0
 396 62 420 127 390 157 c 0
 378 169 363 169 340 146 c 0
 301 107 281 32 299 14 c 0
 310 3 337 3 363 29 c 0
377 22 m 0
 339 -16 282 -16 256 10 c 0
 228 38 238 105 282 149 c 0
 326 193 376 193 401 168 c 0
 434 135 415 60 377 22 c 0
204 301 m 0
 206 282 199 227 167 195 c 0
 122 150 69 150 41 178 c 0
 18 201 17 266 70 319 c 0
 114 363 176 365 198 321 c 0
 229 296 275 301 324 361 c 0
 346 361 l 0
 121 -17 l 0
 99 -17 l 0
 296 315 l 0
 266 290 223 290 204 301 c 0
185 310 m 0
 175 317 166 325 161 332 c 0
 154 333 143 329 130 316 c 0
 90 276 62 203 83 182 c 0
 93 172 124 172 149 197 c 0
 179 226 198 278 185 310 c 0
EndSplineSet
EndChar

StartChar: ampersand
Encoding: 38 38 6
Width: 444
VWidth: 0
Flags: HMW
LayerCount: 2
Fore
SplineSet
210 233 m 0
 222 234 241 244 256 259 c 0
 282 285 282 325 269 338 c 0
 255 352 232 352 222 342 c 0
 203 323 199 282 210 233 c 0
207 41 m 0
 177 87 154 144 143 188 c 0
 135 184 127 179 119 171 c 0
 91 143 91 82 126 47 c 0
 150 23 177 23 207 41 c 0
219 25 m 0
 167 -19 86 -19 42 24 c 0
 9 58 9 118 50 159 c 0
 76 185 108 195 138 209 c 0
 127 254 128 309 161 342 c 0
 197 378 280 378 315 343 c 0
 337 321 337 281 312 256 c 0
 286 230 252 224 216 213 c 0
 223 192 229 172 237 152 c 0
 246 129 258 106 269 84 c 0
 305 112 329 144 311 162 c 0
 300 173 285 172 273 172 c 0
 280 196 l 0
 414 196 l 0
 407 172 l 0
 390 170 378 168 363 153 c 0
 337 127 323 98 282 65 c 0
 310 15 348 15 387 70 c 0
 406 56 l 0
 355 -23 254 -23 219 25 c 0
EndSplineSet
EndChar

StartChar: quotesingle
Encoding: 39 39 7
Width: 143
VWidth: 0
Flags: HMW
LayerCount: 2
Fore
SplineSet
50 213 m 0
 60 278 55 345 71 361 c 0
 82 372 106 372 117 361 c 0
 148 330 114 302 68 206 c 0
 50 213 l 0
EndSplineSet
EndChar

StartChar: parenleft
Encoding: 40 40 8
Width: 203
VWidth: 0
Flags: HMW
LayerCount: 2
Fore
SplineSet
123 -50 m 0
 112 -62 l 0
 10 57 10 197 115 302 c 0
 151 338 181 354 217 370 c 0
 226 354 l 0
 211 344 197 336 181 320 c 0
 116 255 48 66 123 -50 c 0
EndSplineSet
EndChar

StartChar: parenright
Encoding: 41 41 9
Width: 203
VWidth: 0
Flags: HMW
LayerCount: 2
Fore
SplineSet
-27 -62 m 0
 -36 -46 l 0
 -21 -36 -7 -28 9 -12 c 0
 74 53 142 242 67 358 c 0
 78 370 l 0
 180 251 180 111 75 6 c 0
 39 -30 9 -46 -27 -62 c 0
EndSplineSet
EndChar

StartChar: asterisk
Encoding: 42 42 10
Width: 250
VWidth: 0
Flags: HMW
LayerCount: 2
Fore
SplineSet
138 240 m 0
 141 223 183 222 205 200 c 0
 216 189 216 174 203 161 c 0
 195 153 176 153 166 163 c 0
 138 191 152 221 129 231 c 0
 115 203 146 166 124 144 c 0
 112 132 94 132 84 142 c 0
 52 174 125 213 117 234 c 0
 106 239 94 225 87 218 c 0
 63 194 38 189 25 202 c 0
 13 214 13 231 25 243 c 0
 45 263 99 231 114 246 c 0
 111 264 69 265 47 287 c 0
 36 298 36 313 49 326 c 0
 57 334 76 334 86 324 c 0
 114 296 100 266 123 256 c 0
 137 285 106 322 128 344 c 0
 140 356 158 356 168 346 c 0
 200 314 127 275 136 252 c 0
 146 247 158 261 165 268 c 0
 189 292 214 297 227 284 c 0
 239 272 239 255 227 243 c 0
 207 223 153 255 138 240 c 0
EndSplineSet
EndChar

StartChar: plus
Encoding: 43 43 11
Width: 303
VWidth: 0
Flags: HMW
LayerCount: 2
Fore
SplineSet
21 152 m 0
 123 152 l 0
 123 253 l 0
 172 253 l 0
 172 152 l 0
 273 152 l 0
 273 103 l 0
 172 103 l 0
 172 0 l 0
 123 0 l 0
 123 103 l 0
 21 103 l 0
 21 152 l 0
EndSplineSet
EndChar

StartChar: comma
Encoding: 44 44 12
Width: 143
VWidth: 0
Flags: HMW
LayerCount: 2
Fore
SplineSet
-24 -71 m 0
 7 -58 35 -37 42 -8 c 0
 -9 -4 -11 45 12 68 c 0
 28 84 58 84 76 66 c 0
 97 45 97 -8 54 -51 c 0
 31 -74 8 -82 -15 -95 c 0
 -24 -71 l 0
EndSplineSet
EndChar

StartChar: hyphen
Encoding: 45 45 13
Width: 166
VWidth: 0
Flags: HMW
LayerCount: 2
Fore
SplineSet
119 89 m 0
 5 89 l 0
 21 149 l 0
 136 149 l 0
 119 89 l 0
EndSplineSet
EndChar

StartChar: period
Encoding: 46 46 14
Width: 143
VWidth: 0
Flags: HMW
LayerCount: 2
Fore
SplineSet
19 67 m 0
 36 84 64 84 81 67 c 0
 98 50 98 22 81 5 c 0
 64 -12 36 -12 19 5 c 0
 2 22 2 50 19 67 c 0
EndSplineSet
EndChar

StartChar: slash
Encoding: 47 47 15
Width: 139
VWidth: 0
Flags: HMW
LayerCount: 2
Fore
SplineSet
115 369 m 0
 156 369 l 0
 28 -8 l 0
 -13 -8 l 0
 115 369 l 0
EndSplineSet
EndChar

StartChar: zero
Encoding: 48 48 16
Width: 287
VWidth: 0
Flags: HMW
LayerCount: 2
Fore
SplineSet
201 325 m 0
 188 338 170 338 155 323 c 0
 129 297 54 57 86 25 c 0
 102 9 119 9 140 30 c 0
 163 53 234 292 201 325 c 0
48 15 m 0
 -17 80 9 229 89 309 c 0
 144 364 204 364 238 330 c 0
 302 266 284 119 203 38 c 0
 146 -19 82 -19 48 15 c 0
EndSplineSet
EndChar

StartChar: one
Encoding: 49 49 17
Width: 287
VWidth: 0
Flags: HMW
LayerCount: 2
Fore
SplineSet
164 62 m 0
 155 31 166 24 211 24 c 0
 220 24 l 0
 213 0 l 0
 13 0 l 0
 19 24 l 0
 41 24 l 0
 75 24 83 28 92 61 c 0
 147 258 l 0
 156 291 155 298 83 296 c 0
 90 320 l 0
 136 319 197 331 227 353 c 0
 245 353 l 0
 164 62 l 0
EndSplineSet
EndChar

StartChar: two
Encoding: 50 50 18
Width: 287
VWidth: 0
Flags: HMW
LayerCount: 2
Fore
SplineSet
72 321 m 0
 115 364 204 364 245 323 c 0
 279 289 279 230 234 185 c 0
 184 135 107 107 58 64 c 0
 152 64 l 0
 199 64 206 72 231 119 c 0
 250 112 l 0
 206 0 l 0
 -20 0 l 0
 -20 14 -13 27 10 50 c 0
 47 87 96 122 137 163 c 0
 204 230 204 284 177 311 c 0
 158 330 115 330 93 308 c 0
 61 276 98 276 119 255 c 0
 129 245 129 220 116 207 c 0
 100 191 73 191 56 208 c 0
 32 232 32 281 72 321 c 0
EndSplineSet
EndChar

StartChar: three
Encoding: 51 51 19
Width: 287
VWidth: 0
Flags: HMW
LayerCount: 2
Fore
SplineSet
74 322 m 0
 116 364 207 364 249 322 c 0
 276 295 276 246 249 219 c 0
 226 196 217 191 173 179 c 0
 193 174 209 168 224 153 c 0
 252 125 252 73 213 34 c 0
 160 -19 60 -19 24 17 c 0
 -10 51 -10 88 13 111 c 0
 29 127 54 127 70 111 c 0
 84 97 84 77 74 67 c 0
 57 50 33 47 52 28 c 0
 70 10 112 10 136 34 c 0
 165 63 176 135 152 159 c 0
 131 180 111 165 104 165 c 0
 82 165 82 196 104 196 c 0
 127 196 138 178 171 211 c 0
 202 242 202 300 184 318 c 0
 165 337 129 337 112 320 c 0
 98 306 115 297 120 292 c 0
 133 279 133 255 121 243 c 0
 105 227 81 227 67 241 c 0
 47 261 46 294 74 322 c 0
EndSplineSet
EndChar

StartChar: four
Encoding: 52 52 20
Width: 287
VWidth: 0
Flags: HMW
LayerCount: 2
Fore
SplineSet
238 24 m 0
 231 0 l 0
 46 0 l 0
 52 24 l 0
 68 24 l 0
 106 24 109 28 119 61 c 0
 128 92 l 0
 -7 92 l 0
 -7 118 l 0
 225 353 l 0
 272 353 l 0
 208 122 l 0
 267 122 l 0
 258 92 l 0
 200 92 l 0
 191 62 l 0
 184 38 185 23 238 24 c 0
136 122 m 0
 177 265 l 0
 31 122 l 0
 136 122 l 0
EndSplineSet
EndChar

StartChar: five
Encoding: 53 53 21
Width: 287
VWidth: 0
Flags: HMW
LayerCount: 2
Fore
SplineSet
83 208 m 0
 138 228 195 228 232 191 c 0
 262 161 262 84 215 37 c 0
 158 -20 62 -20 22 20 c 0
 -6 48 -6 89 13 108 c 0
 30 125 56 125 69 112 c 0
 85 96 85 70 73 58 c 0
 64 49 37 44 51 30 c 0
 69 12 118 11 144 37 c 0
 180 73 189 151 160 180 c 0
 141 199 112 197 75 183 c 0
 59 124 9 173 55 194 c 0
 104 353 l 0
 179 337 223 331 274 351 c 0
 295 360 291 331 262 302 c 0
 223 263 174 266 105 277 c 0
 83 208 l 0
EndSplineSet
EndChar

StartChar: six
Encoding: 54 54 22
Width: 287
VWidth: 0
Flags: HMW
LayerCount: 2
Fore
SplineSet
106 193 m 0
 139 221 199 219 233 185 c 0
 264 154 264 83 216 35 c 0
 161 -20 85 -20 48 17 c 0
 -7 72 -7 208 91 306 c 0
 150 365 231 365 268 328 c 0
 288 308 288 279 271 262 c 0
 254 245 228 245 212 261 c 0
 184 289 228 316 216 328 c 0
 206 338 185 338 164 317 c 0
 143 296 118 246 106 193 c 0
150 29 m 0
 178 57 190 155 168 177 c 0
 155 190 132 190 114 172 c 0
 78 136 75 41 95 21 c 0
 107 9 130 9 150 29 c 0
EndSplineSet
EndChar

StartChar: seven
Encoding: 55 55 23
Width: 287
VWidth: 0
Flags: HMW
LayerCount: 2
Fore
SplineSet
297 334 m 0
 124 55 185 43 146 4 c 0
 130 -12 100 -12 83 5 c 0
 48 40 92 97 242 281 c 0
 144 281 l 0
 108 281 86 288 49 218 c 0
 32 225 l 0
 82 353 l 0
 170 345 185 345 297 353 c 0
 297 334 l 0
EndSplineSet
EndChar

StartChar: eight
Encoding: 56 56 24
Width: 287
VWidth: 0
Flags: HMW
LayerCount: 2
Fore
SplineSet
106 156 m 0
 55 126 42 63 71 34 c 0
 98 7 147 7 176 36 c 0
 198 58 198 91 168 121 c 0
 153 136 115 148 106 156 c 0
200 190 m 0
 265 152 265 73 224 32 c 0
 172 -20 67 -20 22 25 c 0
 -8 55 -8 98 22 128 c 0
 44 150 65 157 89 168 c 0
 44 206 44 278 86 320 c 0
 129 363 217 363 255 325 c 0
 284 296 284 252 250 218 c 0
 237 205 215 195 200 190 c 0
182 203 m 0
 231 225 231 295 209 317 c 0
 187 339 149 339 124 314 c 0
 104 294 104 259 125 238 c 0
 140 223 165 211 182 203 c 0
EndSplineSet
EndChar

StartChar: nine
Encoding: 57 57 25
Width: 287
VWidth: 0
Flags: HMW
LayerCount: 2
Fore
SplineSet
116 168 m 0
 129 155 152 155 170 173 c 0
 206 209 209 304 189 324 c 0
 177 336 154 336 134 316 c 0
 106 288 94 190 116 168 c 0
120 28 m 0
 141 49 166 99 178 152 c 0
 145 124 85 126 51 160 c 0
 20 191 20 262 68 310 c 0
 123 365 199 365 236 328 c 0
 291 273 291 137 193 39 c 0
 134 -20 53 -20 16 17 c 0
 -4 37 -4 66 13 83 c 0
 30 100 56 100 72 84 c 0
 100 56 56 29 68 17 c 0
 78 7 99 7 120 28 c 0
EndSplineSet
EndChar

StartChar: colon
Encoding: 58 58 26
Width: 143
VWidth: 0
Flags: HMW
LayerCount: 2
Fore
SplineSet
81 67 m 0
 98 50 98 22 81 5 c 0
 64 -12 36 -12 19 5 c 0
 2 22 2 50 19 67 c 0
 36 84 64 84 81 67 c 0
124 226 m 0
 141 209 141 181 124 164 c 0
 107 147 79 147 62 164 c 0
 45 181 45 209 62 226 c 0
 79 243 107 243 124 226 c 0
EndSplineSet
EndChar

StartChar: semicolon
Encoding: 59 59 27
Width: 143
VWidth: 0
Flags: HMW
LayerCount: 2
Fore
SplineSet
112 226 m 0
 129 209 129 181 112 164 c 0
 95 147 67 147 50 164 c 0
 33 181 33 209 50 226 c 0
 67 243 95 243 112 226 c 0
43 -8 m 0
 -8 -4 -11 45 12 68 c 0
 28 84 59 84 77 66 c 0
 98 45 98 -8 55 -51 c 0
 32 -74 8 -82 -15 -95 c 0
 -24 -71 l 0
 7 -58 36 -37 43 -8 c 0
EndSplineSet
EndChar

StartChar: less
Encoding: 60 60 28
Width: 303
VWidth: 0
Flags: HMW
LayerCount: 2
Fore
SplineSet
7 152 m 0
 262 262 l 0
 262 213 l 0
 63 127 l 0
 262 41 l 0
 262 -8 l 0
 7 103 l 0
 7 152 l 0
EndSplineSet
EndChar

StartChar: equal
Encoding: 61 61 29
Width: 303
VWidth: 0
Flags: HMW
LayerCount: 2
Fore
SplineSet
21 55 m 0
 21 104 l 0
 273 104 l 0
 273 55 l 0
 21 55 l 0
21 201 m 0
 273 201 l 0
 273 152 l 0
 21 152 l 0
 21 201 l 0
EndSplineSet
EndChar

StartChar: greater
Encoding: 62 62 30
Width: 303
VWidth: 0
Flags: HMW
LayerCount: 2
Fore
SplineSet
274 152 m 0
 274 103 l 0
 19 -8 l 0
 19 41 l 0
 218 127 l 0
 19 213 l 0
 19 262 l 0
 274 152 l 0
EndSplineSet
EndChar

StartChar: question
Encoding: 63 63 31
Width: 240
VWidth: 0
Flags: HMW
LayerCount: 2
Fore
SplineSet
115 67 m 0
 132 50 132 22 115 5 c 0
 98 -12 70 -12 53 5 c 0
 36 22 36 50 53 67 c 0
 70 84 98 84 115 67 c 0
164 283 m 0
 182 301 182 325 170 337 c 0
 155 352 124 352 102 330 c 0
 86 314 77 292 77 258 c 0
 54 258 l 0
 53 291 61 322 83 344 c 0
 116 377 172 377 202 347 c 0
 229 320 229 253 199 223 c 0
 166 190 137 192 113 168 c 0
 104 159 104 143 112 135 c 0
 123 124 153 129 166 166 c 0
 187 157 l 0
 160 94 105 97 78 124 c 0
 55 147 55 193 91 229 c 0
 114 252 141 260 164 283 c 0
EndSplineSet
EndChar

StartChar: at
Encoding: 64 64 32
Width: 373
VWidth: 0
Flags: HMW
LayerCount: 2
Fore
SplineSet
207 121 m 0
 168 66 131 66 102 95 c 0
 70 127 71 189 118 236 c 0
 162 280 211 280 231 234 c 0
 240 264 l 0
 295 264 l 0
 253 115 l 0
 246 90 263 84 292 113 c 0
 334 155 347 247 297 297 c 0
 240 354 150 354 89 293 c 0
 29 233 29 127 80 76 c 0
 153 3 269 3 318 89 c 0
 361 89 l 0
 297 -32 141 -32 63 46 c 0
 -7 116 -7 243 69 319 c 0
 135 385 257 385 320 322 c 0
 374 268 374 165 325 116 c 0
 271 62 209 62 207 121 c 0
175 242 m 0
 158 225 118 125 144 99 c 0
 153 90 163 90 183 110 c 0
 214 141 234 223 210 247 c 0
 201 256 189 256 175 242 c 0
EndSplineSet
EndChar

StartChar: A
Encoding: 65 65 33
Width: 370
VWidth: 0
Flags: HMW
LayerCount: 2
Fore
SplineSet
28 62 m 0
 217 369 l 0
 244 369 l 0
 304 60 l 0
 308 39 308 23 358 24 c 0
 351 0 l 0
 171 0 l 0
 178 24 l 0
 220 24 227 25 222 54 c 0
 213 108 l 0
 89 108 l 0
 67 71 l 0
 50 42 61 24 90 24 c 0
 108 24 l 0
 101 0 l 0
 -38 0 l 0
 -32 24 l 0
 6 30 12 36 28 62 c 0
105 134 m 0
 208 134 l 0
 185 267 l 0
 105 134 l 0
EndSplineSet
EndChar

StartChar: B
Encoding: 66 66 34
Width: 379
VWidth: 0
Flags: HMW
LayerCount: 2
Fore
SplineSet
157 198 m 0
 222 198 231 198 255 222 c 0
 285 252 284 304 268 320 c 0
 254 334 238 337 223 337 c 0
 197 337 192 325 185 300 c 0
 157 198 l 0
228 44 m 0
 264 80 264 134 242 156 c 0
 225 173 204 173 150 173 c 0
 119 62 l 0
 111 32 114 24 145 24 c 0
 191 24 211 27 228 44 c 0
177 0 m 0
 -21 0 l 0
 -15 24 l 0
 25 24 28 32 36 61 c 0
 102 299 l 0
 109 324 109 337 55 337 c 0
 62 361 l 0
 239 361 l 0
 288 361 320 354 343 331 c 0
 371 303 371 251 344 224 c 0
 321 201 278 186 236 185 c 0
 283 181 309 171 328 152 c 0
 355 125 355 72 321 38 c 0
 294 11 256 0 177 0 c 0
EndSplineSet
EndChar

StartChar: C
Encoding: 67 67 35
Width: 379
VWidth: 0
Flags: HMW
LayerCount: 2
Fore
SplineSet
329 325 m 0
 356 361 l 0
 380 361 l 0
 348 212 l 0
 326 214 l 0
 326 247 320 301 295 326 c 0
 267 354 216 354 181 319 c 0
 130 268 75 100 134 41 c 0
 165 10 231 10 279 58 c 0
 293 72 303 92 308 101 c 0
 339 101 l 0
 329 81 317 57 297 37 c 0
 237 -23 119 -23 62 34 c 0
 0 96 0 216 87 303 c 0
 171 387 289 387 329 325 c 0
EndSplineSet
EndChar

StartChar: D
Encoding: 68 68 36
Width: 416
VWidth: 0
Flags: HMW
LayerCount: 2
Fore
SplineSet
183 300 m 0
 117 62 l 0
 109 32 112 24 143 24 c 0
 193 24 215 29 241 55 c 0
 306 120 330 276 289 317 c 0
 271 335 241 337 221 337 c 0
 195 337 190 325 183 300 c 0
100 299 m 0
 107 324 107 337 53 337 c 0
 60 361 l 0
 250 361 l 0
 312 361 338 346 362 322 c 0
 421 263 410 134 337 61 c 0
 291 15 234 0 172 0 c 0
 -23 0 l 0
 -17 24 l 0
 23 24 26 31 34 61 c 0
 100 299 l 0
EndSplineSet
EndChar

StartChar: E
Encoding: 69 69 37
Width: 370
VWidth: 0
Flags: HMW
LayerCount: 2
Fore
SplineSet
210 94 m 0
 222 166 195 175 151 175 c 0
 119 62 l 0
 111 32 114 24 145 24 c 0
 237 24 266 47 311 127 c 0
 335 122 l 0
 301 0 l 0
 -21 0 l 0
 -15 24 l 0
 25 24 28 31 36 61 c 0
 102 299 l 0
 109 324 109 337 55 337 c 0
 62 361 l 0
 364 361 l 0
 344 234 l 0
 321 237 l 0
 319 312 302 337 223 337 c 0
 197 337 192 325 185 300 c 0
 157 199 l 0
 220 199 234 207 255 255 c 0
 277 255 l 0
 232 94 l 0
 210 94 l 0
EndSplineSet
EndChar

StartChar: F
Encoding: 70 70 38
Width: 352
VWidth: 0
Flags: HMW
LayerCount: 2
Fore
SplineSet
119 62 m 0
 111 32 114 24 166 24 c 0
 160 0 l 0
 -21 0 l 0
 -15 24 l 0
 25 24 28 31 36 61 c 0
 102 299 l 0
 109 324 109 337 55 337 c 0
 62 361 l 0
 363 361 l 0
 343 234 l 0
 321 237 l 0
 319 312 302 337 223 337 c 0
 197 337 192 325 185 300 c 0
 157 199 l 0
 220 199 234 207 254 255 c 0
 276 255 l 0
 231 94 l 0
 209 94 l 0
 222 166 195 175 151 175 c 0
 119 62 l 0
EndSplineSet
EndChar

StartChar: G
Encoding: 71 71 39
Width: 407
VWidth: 0
Flags: HMW
LayerCount: 2
Fore
SplineSet
344 102 m 0
 313 -8 l 0
 289 -8 l 0
 280 41 l 0
 234 -24 117 -23 59 35 c 0
 0 94 0 212 89 301 c 0
 175 387 297 387 342 325 c 0
 369 361 l 0
 393 361 l 0
 361 212 l 0
 339 214 l 0
 339 254 332 298 307 323 c 0
 275 355 222 355 181 314 c 0
 109 242 81 80 130 31 c 0
 156 5 201 5 233 37 c 0
 253 57 272 118 260 130 c 0
 252 138 230 139 214 139 c 0
 221 163 l 0
 402 163 l 0
 395 139 l 0
 352 139 352 130 344 102 c 0
EndSplineSet
EndChar

StartChar: H
Encoding: 72 72 40
Width: 435
VWidth: 0
Flags: HMW
LayerCount: 2
Fore
SplineSet
379 24 m 0
 372 0 l 0
 192 0 l 0
 198 24 l 0
 238 24 241 31 249 61 c 0
 279 168 l 0
 148 168 l 0
 119 62 l 0
 111 32 114 24 166 24 c 0
 159 0 l 0
 -21 0 l 0
 -15 24 l 0
 25 24 28 31 36 61 c 0
 102 299 l 0
 109 324 109 337 55 337 c 0
 62 361 l 0
 243 361 l 0
 236 337 l 0
 194 337 194 328 185 300 c 0
 156 194 l 0
 286 194 l 0
 315 299 l 0
 322 324 322 337 268 337 c 0
 275 361 l 0
 456 361 l 0
 449 337 l 0
 407 337 407 328 398 300 c 0
 332 62 l 0
 324 32 327 24 379 24 c 0
EndSplineSet
EndChar

StartChar: I
Encoding: 73 73 41
Width: 222
VWidth: 0
Flags: HMW
LayerCount: 2
Fore
SplineSet
119 62 m 0
 111 32 114 24 166 24 c 0
 159 0 l 0
 -21 0 l 0
 -15 24 l 0
 25 24 28 31 36 61 c 0
 102 299 l 0
 109 324 109 337 55 337 c 0
 62 361 l 0
 243 361 l 0
 236 337 l 0
 194 337 194 328 185 300 c 0
 119 62 l 0
EndSplineSet
EndChar

StartChar: J
Encoding: 74 74 42
Width: 333
VWidth: 0
Flags: HMW
LayerCount: 2
Fore
SplineSet
301 300 m 0
 245 97 l 0
 238 70 225 44 211 30 c 0
 163 -18 54 -18 19 17 c 0
 -13 49 -13 112 17 142 c 0
 39 164 78 164 97 146 c 0
 116 126 116 98 102 84 c 0
 65 47 46 95 27 76 c 0
 21 70 21 50 32 39 c 0
 59 12 105 12 133 40 c 0
 147 54 156 75 162 96 c 0
 218 299 l 0
 225 324 225 337 171 337 c 0
 178 361 l 0
 359 361 l 0
 352 337 l 0
 310 337 310 328 301 300 c 0
EndSplineSet
EndChar

StartChar: K
Encoding: 75 75 43
Width: 389
VWidth: 0
Flags: HMW
LayerCount: 2
Fore
SplineSet
233 58 m 0
 184 163 l 0
 134 118 l 0
 119 62 l 0
 111 32 114 24 166 24 c 0
 159 0 l 0
 -21 0 l 0
 -15 24 l 0
 25 24 28 31 36 61 c 0
 102 299 l 0
 109 324 109 337 55 337 c 0
 62 361 l 0
 243 361 l 0
 236 337 l 0
 194 337 194 328 185 300 c 0
 147 160 l 0
 287 293 l 0
 323 327 310 336 265 337 c 0
 272 361 l 0
 420 361 l 0
 413 337 l 0
 388 337 379 335 357 316 c 0
 244 216 l 0
 318 58 l 0
 332 29 341 24 387 24 c 0
 380 0 l 0
 189 0 l 0
 195 24 l 0
 248 24 245 33 233 58 c 0
EndSplineSet
EndChar

StartChar: L
Encoding: 76 76 44
Width: 352
VWidth: 0
Flags: HMW
LayerCount: 2
Fore
SplineSet
311 127 m 0
 335 122 l 0
 301 0 l 0
 -21 0 l 0
 -15 24 l 0
 25 24 28 31 36 61 c 0
 102 299 l 0
 109 324 109 337 55 337 c 0
 62 361 l 0
 252 361 l 0
 245 337 l 0
 190 337 194 328 185 300 c 0
 119 62 l 0
 111 32 114 24 145 24 c 0
 216 24 255 29 311 127 c 0
EndSplineSet
EndChar

StartChar: M
Encoding: 77 77 45
Width: 472
VWidth: 0
Flags: HMW
LayerCount: 2
Fore
SplineSet
478 337 m 0
 443 337 443 328 434 300 c 0
 368 62 l 0
 360 32 363 24 415 24 c 0
 408 0 l 0
 228 0 l 0
 234 24 l 0
 274 24 277 31 285 61 c 0
 351 299 l 0
 166 0 l 0
 139 0 l 0
 120 300 l 0
 57 72 l 0
 48 40 56 27 99 24 c 0
 92 0 l 0
 -21 0 l 0
 -15 24 l 0
 13 29 19 39 25 61 c 0
 91 299 l 0
 98 324 98 337 42 337 c 0
 49 361 l 0
 192 361 l 0
 207 112 l 0
 358 361 l 0
 485 361 l 0
 478 337 l 0
EndSplineSet
EndChar

StartChar: N
Encoding: 78 78 46
Width: 426
VWidth: 0
Flags: HMW
LayerCount: 2
Fore
SplineSet
74 72 m 0
 66 43 67 27 128 24 c 0
 121 0 l 0
 -21 0 l 0
 -15 24 l 0
 11 29 34 33 42 61 c 0
 115 324 l 0
 106 335 94 337 54 337 c 0
 61 361 l 0
 185 361 l 0
 318 94 l 0
 372 289 l 0
 382 324 372 333 318 337 c 0
 325 361 l 0
 464 361 l 0
 458 337 l 0
 429 329 412 328 404 300 c 0
 319 -8 l 0
 285 -8 l 0
 134 288 l 0
 74 72 l 0
EndSplineSet
EndChar

StartChar: O
Encoding: 79 79 47
Width: 416
VWidth: 0
Flags: HMW
LayerCount: 2
Fore
SplineSet
357 325 m 0
 423 259 410 141 326 57 c 0
 243 -26 120 -26 58 36 c 0
 -6 100 8 222 90 304 c 0
 173 387 295 387 357 325 c 0
289 331 m 0
 263 357 218 357 182 321 c 0
 126 265 70 81 119 32 c 0
 144 7 195 7 237 49 c 0
 289 101 343 277 289 331 c 0
EndSplineSet
EndChar

StartChar: P
Encoding: 80 80 48
Width: 370
VWidth: 0
Flags: HMW
LayerCount: 2
Fore
SplineSet
249 200 m 0
 287 238 287 303 265 325 c 0
 253 337 238 337 223 337 c 0
 197 337 192 325 185 300 c 0
 152 179 l 0
 200 174 226 177 249 200 c 0
144 154 m 0
 119 62 l 0
 111 32 114 24 166 24 c 0
 159 0 l 0
 -21 0 l 0
 -15 24 l 0
 25 24 28 31 36 61 c 0
 102 299 l 0
 109 324 109 337 55 337 c 0
 62 361 l 0
 239 361 l 0
 301 361 316 354 339 331 c 0
 373 297 373 231 337 195 c 0
 296 154 260 154 144 154 c 0
EndSplineSet
EndChar

StartChar: Q
Encoding: 81 81 49
Width: 416
VWidth: 0
Flags: HMW
LayerCount: 2
Fore
SplineSet
341 -19 m 0
 361 -31 l 0
 331 -116 189 -113 192 -27 c 0
 193 -8 l 0
 146 -12 97 -3 58 36 c 0
 -6 100 8 222 90 304 c 0
 173 387 295 387 357 325 c 0
 423 259 421 106 275 20 c 0
 277 -2 l 0
 284 -75 314 -67 341 -19 c 0
202 45 m 0
 216 119 155 132 118 72 c 0
 106 52 l 0
 117 17 166 6 197 20 c 0
 202 45 l 0
261 81 m 0
 285 114 343 277 289 331 c 0
 263 357 218 357 182 321 c 0
 126 265 94 127 101 79 c 0
 135 151 230 151 261 81 c 0
EndSplineSet
EndChar

StartChar: R
Encoding: 82 82 50
Width: 398
VWidth: 0
Flags: HMW
LayerCount: 2
Fore
SplineSet
273 325 m 0
 262 336 241 337 223 337 c 0
 197 337 192 325 185 300 c 0
 157 197 l 0
 206 193 241 198 261 218 c 0
 294 251 294 304 273 325 c 0
351 73 m 0
 371 62 l 0
 346 -19 263 -19 236 8 c 0
 191 53 237 134 212 159 c 0
 200 171 185 172 149 172 c 0
 119 62 l 0
 111 32 114 24 166 24 c 0
 159 0 l 0
 -21 0 l 0
 -15 24 l 0
 25 24 28 31 36 61 c 0
 102 299 l 0
 109 324 109 337 55 337 c 0
 62 361 l 0
 262 361 l 0
 304 361 332 356 358 330 c 0
 383 305 383 251 354 222 c 0
 325 193 273 181 222 179 c 0
 240 176 260 168 273 155 c 0
 320 108 286 50 305 31 c 0
 321 15 337 39 351 73 c 0
EndSplineSet
EndChar

StartChar: S
Encoding: 83 83 51
Width: 342
VWidth: 0
Flags: HMW
LayerCount: 2
Fore
SplineSet
282 333 m 0
 312 361 l 0
 333 361 l 0
 305 228 l 0
 283 232 l 0
 279 263 281 295 255 321 c 0
 223 353 166 353 143 330 c 0
 119 306 119 274 139 254 c 0
 170 223 230 219 269 180 c 0
 306 143 306 73 266 33 c 0
 211 -22 98 -22 54 36 c 0
 23 0 l 0
 1 0 l 0
 30 140 l 0
 53 137 l 0
 51 100 58 72 84 46 c 0
 122 8 186 8 218 40 c 0
 238 60 238 90 219 110 c 0
 186 142 122 145 83 184 c 0
 50 217 50 288 96 334 c 0
 143 381 232 381 282 333 c 0
EndSplineSet
EndChar

StartChar: T
Encoding: 84 84 52
Width: 361
VWidth: 0
Flags: HMW
LayerCount: 2
Fore
SplineSet
154 337 m 0
 102 337 73 289 45 221 c 0
 22 229 l 0
 60 361 l 0
 381 361 l 0
 358 215 l 0
 335 218 l 0
 346 298 317 337 281 337 c 0
 269 337 257 334 248 300 c 0
 182 62 l 0
 174 32 177 24 229 24 c 0
 223 0 l 0
 25 0 l 0
 31 24 l 0
 48 24 l 0
 88 24 91 31 99 61 c 0
 165 299 l 0
 173 327 173 337 154 337 c 0
EndSplineSet
EndChar

StartChar: U
Encoding: 85 85 53
Width: 416
VWidth: 0
Flags: HMW
LayerCount: 2
Fore
SplineSet
388 300 m 0
 337 115 l 0
 328 82 310 47 287 24 c 0
 263 -1 239 -8 183 -8 c 0
 128 -8 92 9 72 28 c 0
 53 48 36 85 49 132 c 0
 95 299 l 0
 102 324 102 337 48 337 c 0
 55 361 l 0
 245 361 l 0
 238 337 l 0
 229 337 l 0
 187 337 187 328 178 300 c 0
 132 133 l 0
 121 92 126 57 146 37 c 0
 173 10 235 10 271 46 c 0
 288 63 300 84 308 115 c 0
 356 289 l 0
 365 321 359 334 302 337 c 0
 309 361 l 0
 448 361 l 0
 442 337 l 0
 405 329 394 321 388 300 c 0
EndSplineSet
EndChar

StartChar: V
Encoding: 86 86 54
Width: 370
VWidth: 0
Flags: HMW
LayerCount: 2
Fore
SplineSet
395 337 m 0
 368 332 355 325 340 299 c 0
 157 -8 l 0
 130 -8 l 0
 70 301 l 0
 63 334 54 336 16 337 c 0
 23 361 l 0
 203 361 l 0
 196 337 l 0
 152 338 147 332 152 307 c 0
 189 94 l 0
 301 290 l 0
 318 320 308 337 278 337 c 0
 260 337 l 0
 267 361 l 0
 401 361 l 0
 395 337 l 0
EndSplineSet
EndChar

StartChar: W
Encoding: 87 87 55
Width: 472
VWidth: 0
Flags: HMW
LayerCount: 2
Fore
SplineSet
170 337 m 0
 139 339 137 330 140 308 c 0
 161 120 l 0
 241 293 l 0
 235 328 231 337 202 337 c 0
 209 361 l 0
 357 361 l 0
 350 337 l 0
 319 338 315 330 318 307 c 0
 337 120 l 0
 412 297 l 0
 425 326 421 340 378 337 c 0
 385 361 l 0
 497 361 l 0
 491 337 l 0
 467 331 458 327 444 296 c 0
 309 -8 l 0
 280 -8 l 0
 247 246 l 0
 129 -8 l 0
 102 -8 l 0
 61 304 l 0
 57 336 54 337 20 337 c 0
 27 361 l 0
 177 361 l 0
 170 337 l 0
EndSplineSet
EndChar

StartChar: X
Encoding: 88 88 56
Width: 370
VWidth: 0
Flags: HMW
LayerCount: 2
Fore
SplineSet
27 337 m 0
 34 361 l 0
 222 361 l 0
 215 337 l 0
 197 337 l 0
 168 337 166 331 176 308 c 0
 210 229 l 0
 266 284 l 0
 299 316 296 341 248 337 c 0
 255 361 l 0
 406 361 l 0
 399 337 l 0
 374 335 353 331 330 308 c 0
 221 203 l 0
 279 70 l 0
 295 32 310 23 352 24 c 0
 345 0 l 0
 153 0 l 0
 159 24 l 0
 215 21 209 33 197 62 c 0
 161 144 l 0
 94 80 l 0
 63 50 62 21 117 24 c 0
 110 0 l 0
 -36 0 l 0
 -30 24 l 0
 -10 22 3 30 22 48 c 0
 150 171 l 0
 94 299 l 0
 80 330 62 337 27 337 c 0
EndSplineSet
EndChar

StartChar: Y
Encoding: 89 89 57
Width: 352
VWidth: 0
Flags: HMW
LayerCount: 2
Fore
SplineSet
390 337 m 0
 367 338 346 331 323 301 c 0
 209 153 l 0
 184 62 l 0
 176 32 179 24 236 24 c 0
 229 0 l 0
 32 0 l 0
 38 24 l 0
 50 24 l 0
 90 24 93 31 101 61 c 0
 126 152 l 0
 70 297 l 0
 57 332 53 337 8 337 c 0
 15 361 l 0
 203 361 l 0
 196 337 l 0
 141 338 144 331 156 298 c 0
 199 180 l 0
 280 289 l 0
 306 324 292 339 247 337 c 0
 254 361 l 0
 397 361 l 0
 390 337 l 0
EndSplineSet
EndChar

StartChar: Z
Encoding: 90 90 58
Width: 352
VWidth: 0
Flags: HMW
LayerCount: 2
Fore
SplineSet
304 132 m 0
 328 127 l 0
 294 0 l 0
 -15 0 l 0
 -9 24 l 0
 249 337 l 0
 194 337 l 0
 125 337 89 295 64 236 c 0
 40 241 l 0
 73 361 l 0
 358 361 l 0
 352 337 l 0
 98 24 l 0
 158 24 l 0
 233 24 272 64 304 132 c 0
EndSplineSet
EndChar

StartChar: bracketleft
Encoding: 91 91 59
Width: 203
VWidth: 0
Flags: HMW
LayerCount: 2
Fore
SplineSet
92 369 m 0
 216 369 l 0
 210 348 l 0
 142 348 l 0
 44 -34 l 0
 118 -34 l 0
 112 -55 l 0
 -16 -55 l 0
 92 369 l 0
EndSplineSet
EndChar

StartChar: backslash
Encoding: 92 92 60
Width: 303
VWidth: 0
Flags: HMW
LayerCount: 2
Fore
SplineSet
230 0 m 0
 41 369 l 0
 84 369 l 0
 273 0 l 0
 230 0 l 0
EndSplineSet
EndChar

StartChar: bracketright
Encoding: 93 93 61
Width: 203
VWidth: 0
Flags: HMW
LayerCount: 2
Fore
SplineSet
99 -55 m 0
 -25 -55 l 0
 -19 -34 l 0
 49 -34 l 0
 147 348 l 0
 73 348 l 0
 79 369 l 0
 207 369 l 0
 99 -55 l 0
EndSplineSet
EndChar

StartChar: asciicircum
Encoding: 94 94 62
Width: 166
VWidth: 0
Flags: HMW
LayerCount: 2
Fore
SplineSet
12 268 m 0
 98 355 l 0
 142 355 l 0
 183 268 l 0
 154 268 l 0
 111 314 l 0
 45 268 l 0
 12 268 l 0
EndSplineSet
EndChar

StartChar: underscore
Encoding: 95 95 63
Width: 250
VWidth: 0
Flags: HMW
LayerCount: 2
Fore
SplineSet
0 -65 m 0
 0 -38 l 0
 250 -38 l 0
 250 -65 l 0
 0 -65 l 0
EndSplineSet
EndChar

StartChar: grave
Encoding: 96 96 64
Width: 166
VWidth: 0
Flags: HMW
LayerCount: 2
Fore
SplineSet
49 315 m 0
 16 335 57 388 92 342 c 0
 147 268 l 0
 126 268 l 0
 49 315 l 0
EndSplineSet
EndChar

StartChar: a
Encoding: 97 97 65
Width: 333
VWidth: 0
Flags: HMW
LayerCount: 2
Fore
SplineSet
93 30 m 0
 104 19 131 19 154 42 c 0
 177 65 219 175 190 204 c 0
 175 219 151 219 134 202 c 0
 101 169 66 57 93 30 c 0
323 72 m 0
 267 -28 181 -28 177 37 c 0
 130 -18 66 -18 37 11 c 0
 -4 52 -4 137 54 195 c 0
 111 252 196 253 216 203 c 0
 224 231 l 0
 297 231 l 0
 246 63 l 0
 231 14 262 15 307 84 c 0
 323 72 l 0
EndSplineSet
EndChar

StartChar: b
Encoding: 98 98 66
Width: 305
VWidth: 0
Flags: HMW
LayerCount: 2
Fore
SplineSet
190 203 m 0
 177 216 153 216 130 193 c 0
 112 175 59 52 92 19 c 0
 104 7 130 7 150 27 c 0
 184 61 219 174 190 203 c 0
20 112 m 0
 79 302 l 0
 86 327 86 340 32 340 c 0
 38 361 l 0
 172 369 l 0
 125 212 l 0
 159 247 224 247 256 215 c 0
 290 181 290 101 230 41 c 0
 168 -21 74 -21 35 18 c 0
 14 39 8 75 20 112 c 0
EndSplineSet
EndChar

StartChar: c
Encoding: 99 99 67
Width: 268
VWidth: 0
Flags: HMW
LayerCount: 2
Fore
SplineSet
220 54 m 0
 164 -23 67 -23 23 21 c 0
 -8 52 -9 132 46 187 c 0
 110 251 188 251 225 214 c 0
 250 189 250 159 229 138 c 0
 214 123 190 123 173 140 c 0
 160 153 160 172 177 189 c 0
 181 193 199 198 185 212 c 0
 176 221 152 221 124 193 c 0
 92 161 66 58 96 28 c 0
 112 12 156 12 205 68 c 0
 220 54 l 0
EndSplineSet
EndChar

StartChar: d
Encoding: 100 100 68
Width: 333
VWidth: 0
Flags: HMW
LayerCount: 2
Fore
SplineSet
239 302 m 0
 246 327 246 340 192 340 c 0
 198 361 l 0
 332 369 l 0
 239 63 l 0
 224 15 255 15 300 84 c 0
 316 72 l 0
 262 -28 170 -28 170 37 c 0
 122 -19 58 -18 28 12 c 0
 -12 52 -12 138 45 195 c 0
 103 253 188 253 208 202 c 0
 239 302 l 0
148 43 m 0
 166 61 214 173 184 203 c 0
 168 219 143 219 126 202 c 0
 97 173 55 60 85 30 c 0
 96 19 124 19 148 43 c 0
EndSplineSet
EndChar

StartChar: e
Encoding: 101 101 69
Width: 259
VWidth: 0
Flags: HMW
LayerCount: 2
Fore
SplineSet
84 110 m 0
 104 105 145 122 167 145 c 0
 196 174 196 197 182 211 c 0
 172 221 150 221 125 196 c 0
 100 171 87 133 84 110 c 0
222 43 m 0
 167 -21 66 -21 23 22 c 0
 -8 53 -9 132 46 187 c 0
 110 251 194 251 231 214 c 0
 249 196 249 157 225 134 c 0
 196 104 126 90 82 88 c 0
 80 64 l 0
 77 5 160 5 207 57 c 0
 222 43 l 0
EndSplineSet
EndChar

StartChar: f
Encoding: 102 102 70
Width: 194
VWidth: 0
Flags: HMW
LayerCount: 2
Fore
SplineSet
216 283 m 0
 204 295 204 321 215 332 c 0
 222 339 222 345 218 349 c 0
 214 353 195 353 180 338 c 0
 167 325 152 274 143 228 c 0
 207 228 l 0
 200 205 l 0
 138 205 l 0
 120 115 94 12 66 -90 c 0
 -24 -103 l 0
 5 -58 37 66 71 205 c 0
 19 205 l 0
 26 228 l 0
 77 228 l 0
 88 269 100 307 133 340 c 0
 171 378 233 378 264 347 c 0
 279 332 279 302 264 287 c 0
 249 272 227 272 216 283 c 0
EndSplineSet
EndChar

StartChar: g
Encoding: 103 103 71
Width: 305
VWidth: 0
Flags: HMW
LayerCount: 2
Fore
SplineSet
35 -69 m 0
 54 -88 135 -88 161 -62 c 0
 172 -51 172 -43 162 -33 c 0
 145 -16 50 -16 36 -30 c 0
 25 -41 25 -59 35 -69 c 0
184 207 m 0
 169 222 149 222 135 208 c 0
 114 187 100 128 121 107 c 0
 132 96 157 96 172 111 c 0
 197 136 202 189 184 207 c 0
210 18 m 0
 230 -2 230 -44 205 -69 c 0
 161 -113 12 -113 -24 -77 c 0
 -37 -64 -37 -42 -22 -27 c 0
 -7 -12 4 -10 29 -5 c 0
 -12 21 -12 78 64 99 c 0
 30 119 30 176 59 205 c 0
 98 244 162 245 204 230 c 0
 237 271 278 271 293 256 c 0
 304 245 304 222 295 213 c 0
 284 202 269 202 260 211 c 0
 245 226 251 250 224 220 c 0
 230 216 236 211 242 205 c 0
 270 177 270 132 244 106 c 0
 201 63 97 82 89 82 c 0
 46 82 46 46 88 46 c 0
 135 46 185 43 210 18 c 0
EndSplineSet
EndChar

StartChar: h
Encoding: 104 104 72
Width: 342
VWidth: 0
Flags: HMW
LayerCount: 2
Fore
SplineSet
128 175 m 0
 184 250 245 250 272 223 c 0
 308 187 231 46 245 32 c 0
 252 25 271 38 303 84 c 0
 319 72 l 0
 270 -18 201 -18 181 2 c 0
 141 42 225 180 210 195 c 0
 183 222 120 149 101 88 c 0
 75 0 l 0
 0 0 l 0
 94 302 l 0
 101 327 101 340 47 340 c 0
 53 361 l 0
 187 369 l 0
 128 175 l 0
EndSplineSet
EndChar

StartChar: i
Encoding: 105 105 73
Width: 194
VWidth: 0
Flags: HMW
LayerCount: 2
Fore
SplineSet
99 299 m 0
 81 317 81 341 99 359 c 0
 115 375 141 375 157 359 c 0
 175 341 175 317 157 299 c 0
 141 283 115 283 99 299 c 0
172 73 m 0
 157 51 150 39 129 18 c 0
 97 -14 50 -14 33 3 c 0
 22 14 20 41 26 61 c 0
 61 172 l 0
 68 197 68 210 14 210 c 0
 20 231 l 0
 154 239 l 0
 101 62 l 0
 98 51 94 37 98 33 c 0
 105 26 125 38 156 85 c 0
 172 73 l 0
EndSplineSet
EndChar

StartChar: j
Encoding: 106 106 74
Width: 185
VWidth: 0
Flags: HMW
LayerCount: 2
Fore
SplineSet
178 299 m 0
 162 283 136 283 120 299 c 0
 102 317 102 341 120 359 c 0
 136 375 162 375 178 359 c 0
 196 341 196 317 178 299 c 0
34 210 m 0
 40 231 l 0
 173 239 l 0
 113 17 l 0
 102 -24 84 -53 67 -70 c 0
 25 -112 -43 -112 -73 -83 c 0
 -89 -66 -89 -35 -75 -21 c 0
 -58 -4 -36 -4 -21 -19 c 0
 7 -47 -31 -68 -22 -78 c 0
 -12 -87 13 -79 27 -26 c 0
 80 172 l 0
 87 197 87 210 34 210 c 0
EndSplineSet
EndChar

StartChar: k
Encoding: 107 107 75
Width: 324
VWidth: 0
Flags: HMW
LayerCount: 2
Fore
SplineSet
159 72 m 0
 160 100 l 0
 115 86 126 147 176 116 c 0
 185 122 196 126 208 138 c 0
 232 162 231 185 220 196 c 0
 190 226 121 167 96 88 c 0
 70 0 l 0
 -5 0 l 0
 89 302 l 0
 96 327 96 340 42 340 c 0
 48 361 l 0
 182 369 l 0
 123 175 l 0
 174 248 251 248 274 226 c 0
 291 208 292 175 266 149 c 0
 244 127 219 115 190 107 c 0
 239 68 212 47 228 31 c 0
 237 22 249 22 274 73 c 0
 292 62 l 0
 261 -18 194 -18 171 5 c 0
 152 24 158 55 159 72 c 0
EndSplineSet
EndChar

StartChar: l
Encoding: 108 108 76
Width: 194
VWidth: 0
Flags: HMW
LayerCount: 2
Fore
SplineSet
92 62 m 0
 89 51 85 37 89 33 c 0
 96 26 110 21 153 85 c 0
 169 73 l 0
 154 51 147 39 126 18 c 0
 88 -14 41 -14 24 3 c 0
 13 14 11 41 17 61 c 0
 92 302 l 0
 99 327 99 340 45 340 c 0
 51 361 l 0
 185 369 l 0
 92 62 l 0
EndSplineSet
EndChar

StartChar: m
Encoding: 109 109 77
Width: 472
VWidth: 0
Flags: HMW
LayerCount: 2
Fore
SplineSet
163 188 m 0
 133 158 112 109 103 78 c 0
 80 0 l 0
 5 0 l 0
 59 172 l 0
 66 197 66 210 20 210 c 0
 26 231 l 0
 149 239 l 0
 130 175 l 0
 177 260 290 261 276 178 c 0
 324 262 446 262 417 162 c 0
 387 62 l 0
 384 51 380 37 384 33 c 0
 391 26 411 38 442 85 c 0
 458 73 l 0
 443 51 436 39 415 18 c 0
 383 -14 336 -14 319 3 c 0
 308 14 306 41 312 61 c 0
 347 172 l 0
 359 211 330 211 307 188 c 0
 277 158 256 109 247 78 c 0
 224 0 l 0
 149 0 l 0
 203 172 l 0
 215 211 186 211 163 188 c 0
EndSplineSet
EndChar

StartChar: n
Encoding: 110 110 78
Width: 342
VWidth: 0
Flags: HMW
LayerCount: 2
Fore
SplineSet
127 175 m 0
 176 250 245 250 272 223 c 0
 308 187 231 47 245 33 c 0
 252 26 271 39 303 85 c 0
 319 73 l 0
 270 -17 201 -17 181 3 c 0
 141 43 225 186 210 201 c 0
 185 226 125 161 103 88 c 0
 77 0 l 0
 2 0 l 0
 56 172 l 0
 63 197 63 210 17 210 c 0
 23 231 l 0
 146 239 l 0
 127 175 l 0
EndSplineSet
EndChar

StartChar: o
Encoding: 111 111 79
Width: 287
VWidth: 0
Flags: HMW
LayerCount: 2
Fore
SplineSet
48 191 m 0
 108 251 201 251 239 213 c 0
 282 170 282 95 227 40 c 0
 167 -20 74 -20 36 18 c 0
 -7 61 -7 136 48 191 c 0
128 204 m 0
 103 179 60 53 91 22 c 0
 104 9 129 9 148 28 c 0
 173 53 216 179 185 210 c 0
 172 223 147 223 128 204 c 0
EndSplineSet
EndChar

StartChar: p
Encoding: 112 112 80
Width: 324
VWidth: 0
Flags: HMW
LayerCount: 2
Fore
SplineSet
92 27 m 0
 71 -45 l 0
 61 -77 66 -80 109 -82 c 0
 103 -103 l 0
 -59 -103 l 0
 -53 -82 l 0
 -23 -82 -13 -80 -6 -55 c 0
 64 172 l 0
 71 197 71 210 25 210 c 0
 31 231 l 0
 146 239 l 0
 133 195 l 0
 167 250 239 250 273 216 c 0
 306 183 306 94 242 30 c 0
 192 -20 116 -20 92 27 c 0
174 32 m 0
 184 42 246 164 209 201 c 0
 197 213 175 213 156 194 c 0
 128 166 83 62 120 25 c 0
 132 13 155 13 174 32 c 0
EndSplineSet
EndChar

StartChar: q
Encoding: 113 113 81
Width: 315
VWidth: 0
Flags: HMW
LayerCount: 2
Fore
SplineSet
83 34 m 0
 98 19 125 19 144 38 c 0
 175 69 214 172 181 205 c 0
 168 218 145 218 128 201 c 0
 101 174 53 64 83 34 c 0
208 -45 m 0
 198 -77 203 -80 246 -82 c 0
 240 -103 l 0
 78 -103 l 0
 84 -82 l 0
 114 -82 124 -80 131 -55 c 0
 154 21 l 0
 121 -17 55 -17 22 16 c 0
 -11 49 -11 135 54 200 c 0
 107 253 191 254 213 192 c 0
 268 239 l 0
 294 239 l 0
 208 -45 l 0
EndSplineSet
EndChar

StartChar: r
Encoding: 114 114 82
Width: 259
VWidth: 0
Flags: HMW
LayerCount: 2
Fore
SplineSet
103 88 m 0
 77 0 l 0
 2 0 l 0
 56 172 l 0
 63 197 63 210 17 210 c 0
 23 231 l 0
 146 239 l 0
 127 175 l 0
 175 249 229 249 252 225 c 0
 266 212 266 185 252 171 c 0
 238 157 214 157 204 167 c 0
 190 181 198 198 193 203 c 0
 180 216 123 155 103 88 c 0
EndSplineSet
EndChar

StartChar: s
Encoding: 115 115 83
Width: 240
VWidth: 0
Flags: HMW
LayerCount: 2
Fore
SplineSet
98 206 m 0
 87 195 87 177 98 166 c 0
 111 153 151 145 180 116 c 0
 203 93 203 52 172 20 c 0
 134 -17 48 -15 19 14 c 0
 -2 35 -2 63 12 77 c 0
 22 87 47 87 57 77 c 0
 86 48 47 30 56 21 c 0
 69 8 108 8 125 25 c 0
 139 39 139 57 128 68 c 0
 108 88 75 90 52 113 c 0
 25 140 25 182 53 211 c 0
 91 248 176 246 205 217 c 0
 223 199 223 174 209 160 c 0
 195 146 177 146 163 160 c 0
 140 183 175 201 167 210 c 0
 153 223 115 223 98 206 c 0
EndSplineSet
EndChar

StartChar: t
Encoding: 116 116 84
Width: 203
VWidth: 0
Flags: HMW
LayerCount: 2
Fore
SplineSet
174 73 m 0
 159 51 152 39 131 18 c 0
 99 -14 45 -14 28 3 c 0
 17 14 15 41 21 62 c 0
 66 205 l 0
 15 205 l 0
 22 228 l 0
 73 228 l 0
 103 325 l 0
 176 325 l 0
 147 228 l 0
 203 228 l 0
 196 205 l 0
 139 205 l 0
 96 63 l 0
 93 51 89 37 93 33 c 0
 105 21 127 38 158 85 c 0
 174 73 l 0
EndSplineSet
EndChar

StartChar: u
Encoding: 117 117 85
Width: 342
VWidth: 0
Flags: HMW
LayerCount: 2
Fore
SplineSet
198 143 m 0
 225 231 l 0
 299 231 l 0
 249 62 l 0
 246 51 242 37 246 33 c 0
 253 26 274 41 303 82 c 0
 319 70 l 0
 306 51 299 39 278 18 c 0
 246 -14 198 -14 181 3 c 0
 170 14 167 32 172 53 c 0
 123 -31 -10 -31 22 69 c 0
 55 172 l 0
 62 197 62 210 18 210 c 0
 24 231 l 0
 145 239 l 0
 92 56 l 0
 80 15 112 15 147 50 c 0
 169 72 191 116 198 143 c 0
EndSplineSet
EndChar

StartChar: v
Encoding: 118 118 86
Width: 278
VWidth: 0
Flags: HMW
LayerCount: 2
Fore
SplineSet
16 210 m 0
 22 231 l 0
 143 239 l 0
 99 92 l 0
 91 66 95 44 105 34 c 0
 116 23 148 23 172 47 c 0
 206 81 217 133 217 141 c 0
 217 150 221 155 201 175 c 0
 177 199 177 217 188 228 c 0
 203 243 222 243 236 229 c 0
 275 190 222 68 183 29 c 0
 136 -18 77 -17 45 15 c 0
 20 40 21 79 35 124 c 0
 50 172 l 0
 57 197 57 210 16 210 c 0
EndSplineSet
EndChar

StartChar: w
Encoding: 119 119 87
Width: 416
VWidth: 0
Flags: HMW
LayerCount: 2
Fore
SplineSet
249 95 m 0
 241 69 245 47 255 37 c 0
 264 28 297 28 316 47 c 0
 350 81 361 133 361 141 c 0
 361 150 365 155 345 175 c 0
 321 199 321 217 332 228 c 0
 347 243 366 243 380 229 c 0
 419 190 366 68 327 29 c 0
 275 -23 186 -22 183 40 c 0
 182 66 l 0
 138 -36 -15 -35 22 84 c 0
 50 172 l 0
 57 197 65 212 16 210 c 0
 22 231 l 0
 143 239 l 0
 97 85 l 0
 78 20 121 21 146 46 c 0
 158 58 174 91 184 124 c 0
 217 231 l 0
 290 231 l 0
 249 95 l 0
EndSplineSet
EndChar

StartChar: x
Encoding: 120 120 88
Width: 287
VWidth: 0
Flags: HMW
LayerCount: 2
Fore
SplineSet
13 152 m 0
 56 260 134 260 151 192 c 0
 158 167 l 0
 168 179 179 197 195 213 c 0
 226 244 258 245 276 227 c 0
 289 214 289 194 277 182 c 0
 261 166 242 166 227 191 c 0
 218 209 214 209 163 138 c 0
 168 110 173 57 186 44 c 0
 196 34 207 34 233 89 c 0
 251 79 l 0
 208 -29 130 -29 113 39 c 0
 106 68 l 0
 93 52 82 34 66 18 c 0
 35 -13 3 -14 -15 4 c 0
 -28 17 -28 37 -16 49 c 0
 0 65 19 65 34 40 c 0
 43 22 47 22 101 98 c 0
 96 121 91 174 78 187 c 0
 68 197 57 197 31 142 c 0
 13 152 l 0
EndSplineSet
EndChar

StartChar: y
Encoding: 121 121 89
Width: 259
VWidth: 0
Flags: HMW
LayerCount: 2
Fore
SplineSet
175 45 m 0
 165 25 116 -45 87 -74 c 0
 51 -110 0 -110 -21 -89 c 0
 -38 -72 -38 -46 -24 -32 c 0
 -10 -18 11 -18 24 -31 c 0
 44 -51 25 -64 34 -73 c 0
 41 -80 52 -80 75 -57 c 0
 94 -38 100 -25 109 -13 c 0
 60 161 l 0
 49 201 34 201 13 132 c 0
 -5 139 l 0
 4 171 13 200 32 219 c 0
 57 244 89 244 105 228 c 0
 116 217 121 201 124 190 c 0
 160 61 l 0
 181 100 199 127 199 154 c 0
 199 180 165 203 192 230 c 0
 204 242 224 242 237 229 c 0
 266 200 214 119 175 45 c 0
EndSplineSet
EndChar

StartChar: z
Encoding: 122 122 90
Width: 259
VWidth: 0
Flags: HMW
LayerCount: 2
Fore
SplineSet
22 143 m 0
 5 152 l 0
 38 254 116 254 174 216 c 0
 193 203 205 207 205 222 c 0
 205 244 236 244 236 226 c 0
 236 212 215 181 185 151 c 0
 151 117 102 87 45 59 c 0
 88 69 121 68 144 61 c 0
 184 49 200 50 213 85 c 0
 232 78 l 0
 204 -23 107 -23 51 17 c 0
 33 30 21 28 21 11 c 0
 21 -14 -9 -14 -10 8 c 0
 -10 18 4 46 36 78 c 0
 74 116 118 140 180 174 c 0
 138 166 102 166 77 172 c 0
 50 178 33 179 22 143 c 0
EndSplineSet
EndChar

StartChar: braceleft
Encoding: 123 123 91
Width: 203
VWidth: 0
Flags: HMW
LayerCount: 2
Fore
SplineSet
97 100 m 0
 70 -7 l 0
 63 -34 69 -56 91 -58 c 0
 66 -59 49 -58 35 -44 c 0
 25 -34 24 -22 30 -1 c 0
 57 106 l 0
 64 133 59 154 36 157 c 0
 59 161 74 172 82 205 c 0
 110 314 l 0
 112 323 116 336 127 347 c 0
 143 364 174 371 202 369 c 0
 172 363 161 349 154 321 c 0
 126 212 l 0
 119 182 102 164 65 157 c 0
 76 156 84 153 91 146 c 0
 102 135 103 124 97 100 c 0
EndSplineSet
EndChar

StartChar: bar
Encoding: 124 124 92
Width: 303
VWidth: 0
Flags: HMW
LayerCount: 2
Fore
SplineSet
131 369 m 0
 172 369 l 0
 172 0 l 0
 131 0 l 0
 131 369 l 0
EndSplineSet
EndChar

StartChar: braceright
Encoding: 125 125 93
Width: 203
VWidth: 0
Flags: HMW
LayerCount: 2
Fore
SplineSet
60 -36 m 0
 44 -53 13 -60 -15 -58 c 0
 15 -52 26 -38 33 -10 c 0
 61 99 l 0
 68 129 85 147 122 154 c 0
 111 155 103 158 96 165 c 0
 85 176 84 187 90 211 c 0
 117 318 l 0
 124 345 118 367 96 369 c 0
 121 370 138 369 152 355 c 0
 162 345 163 333 157 312 c 0
 130 205 l 0
 123 178 128 157 151 154 c 0
 128 150 113 139 105 106 c 0
 77 -3 l 0
 75 -12 71 -25 60 -36 c 0
EndSplineSet
EndChar

StartChar: asciitilde
Encoding: 126 126 94
Width: 166
VWidth: 0
Flags: HMW
LayerCount: 2
Fore
SplineSet
202 342 m 0
 193 286 151 271 117 283 c 0
 85 295 l 0
 58 305 48 300 38 279 c 0
 17 279 l 0
 26 335 68 350 102 338 c 0
 134 326 l 0
 161 316 171 321 181 342 c 0
 202 342 l 0
EndSplineSet
EndChar

StartChar: uni008F
Encoding: 143 143 95
Width: 303
VWidth: 0
Flags: HMW
LayerCount: 2
Fore
SplineSet
80 124 m 0
 46 158 46 210 80 244 c 0
 112 276 166 276 198 244 c 0
 232 210 232 158 198 124 c 0
 166 92 112 92 80 124 c 0
EndSplineSet
EndChar

StartChar: uni0090
Encoding: 144 144 96
Width: 129
VWidth: 0
Flags: HMW
LayerCount: 2
Fore
SplineSet
132 374 m 0
 141 350 l 0
 114 335 82 319 74 287 c 0
 124 283 126 233 106 213 c 0
 87 194 59 194 40 213 c 0
 19 234 19 286 61 328 c 0
 88 355 107 360 132 374 c 0
EndSplineSet
EndChar

StartChar: uni0091
Encoding: 145 145 97
Width: 129
VWidth: 0
Flags: HMW
LayerCount: 2
Fore
SplineSet
32 219 m 0
 59 234 91 250 99 282 c 0
 49 286 47 336 67 356 c 0
 86 375 114 375 133 356 c 0
 154 335 154 283 112 241 c 0
 85 214 66 209 41 195 c 0
 32 219 l 0
EndSplineSet
EndChar

StartChar: uni0092
Encoding: 146 146 98
Width: 139
VWidth: 0
Flags: HMW
LayerCount: 2
Fore
SplineSet
76 44 m 0
 79 36 73 32 67 37 c 0
 -8 106 l 0
 -20 117 -20 119 -8 127 c 0
 100 202 l 0
 110 208 117 201 109 193 c 0
 37 119 l 0
 76 44 l 0
EndSplineSet
EndChar

StartChar: uni0093
Encoding: 147 147 99
Width: 139
VWidth: 0
Flags: HMW
LayerCount: 2
Fore
SplineSet
0 46 m 0
 72 121 l 0
 33 195 l 0
 30 203 36 207 42 202 c 0
 117 134 l 0
 129 123 129 121 117 113 c 0
 9 37 l 0
 -1 31 -8 38 0 46 c 0
EndSplineSet
EndChar

StartChar: uni0094
Encoding: 148 148 100
Width: 240
VWidth: 0
Flags: HMW
LayerCount: 2
Fore
SplineSet
132 374 m 0
 141 350 l 0
 114 335 82 319 74 287 c 0
 124 283 126 233 106 213 c 0
 87 194 59 194 40 213 c 0
 19 234 19 286 61 328 c 0
 88 355 107 360 132 374 c 0
261 350 m 0
 234 335 202 319 194 287 c 0
 244 283 246 233 226 213 c 0
 207 194 179 194 160 213 c 0
 139 234 139 286 181 328 c 0
 208 355 227 360 252 374 c 0
 261 350 l 0
EndSplineSet
EndChar

StartChar: uni0095
Encoding: 149 149 101
Width: 240
VWidth: 0
Flags: HMW
LayerCount: 2
Fore
SplineSet
41 195 m 0
 32 219 l 0
 59 234 91 250 99 282 c 0
 49 286 47 336 67 356 c 0
 86 375 114 375 133 356 c 0
 154 335 154 283 112 241 c 0
 85 214 66 209 41 195 c 0
253 356 m 0
 274 335 274 283 232 241 c 0
 205 214 186 209 161 195 c 0
 152 219 l 0
 179 234 211 250 219 282 c 0
 169 286 167 336 187 356 c 0
 206 375 234 375 253 356 c 0
EndSplineSet
EndChar

StartChar: uni0096
Encoding: 150 150 102
Width: 240
VWidth: 0
Flags: HMW
LayerCount: 2
Fore
SplineSet
-35 -71 m 0
 -8 -56 24 -40 32 -8 c 0
 -18 -4 -21 46 -1 66 c 0
 18 85 47 85 66 66 c 0
 87 45 87 -7 45 -49 c 0
 18 -76 -1 -81 -26 -95 c 0
 -35 -71 l 0
165 -49 m 0
 138 -76 119 -81 94 -95 c 0
 85 -71 l 0
 112 -56 144 -40 152 -8 c 0
 102 -4 99 46 119 66 c 0
 138 85 167 85 186 66 c 0
 207 45 207 -7 165 -49 c 0
EndSplineSet
EndChar

StartChar: uni0097
Encoding: 151 151 103
Width: 250
VWidth: 0
Flags: HMW
LayerCount: 2
Fore
SplineSet
-9 94 m 0
 -3 143 l 0
 253 143 l 0
 247 94 l 0
 -9 94 l 0
EndSplineSet
EndChar

StartChar: uni0098
Encoding: 152 152 104
Width: 500
VWidth: 0
Flags: HMW
LayerCount: 2
Fore
SplineSet
-9 94 m 0
 -3 143 l 0
 509 143 l 0
 503 94 l 0
 -9 94 l 0
EndSplineSet
EndChar

StartChar: uni0099
Encoding: 153 153 105
Width: 303
VWidth: 0
Flags: HMW
LayerCount: 2
Fore
SplineSet
21 152 m 0
 273 152 l 0
 273 103 l 0
 21 103 l 0
 21 152 l 0
EndSplineSet
EndChar

StartChar: uni009A
Encoding: 154 154 106
Width: 481
VWidth: 0
Flags: HMW
LayerCount: 2
Fore
SplineSet
192 61 m 0
 254 286 l 0
 258 301 262 318 248 332 c 0
 235 345 196 345 164 313 c 0
 109 258 63 88 114 37 c 0
 132 19 166 19 181 34 c 0
 187 40 190 53 192 61 c 0
275 62 m 0
 267 32 270 24 301 24 c 0
 372 24 401 47 446 127 c 0
 466 122 l 0
 432 0 l 0
 161 0 l 0
 92 0 68 13 44 37 c 0
 -11 92 0 224 83 307 c 0
 117 341 160 361 232 361 c 0
 490 361 l 0
 470 234 l 0
 447 237 l 0
 445 312 428 337 379 337 c 0
 353 337 348 325 341 300 c 0
 313 199 l 0
 361 199 375 207 396 255 c 0
 418 255 l 0
 373 94 l 0
 351 94 l 0
 363 166 336 175 307 175 c 0
 275 62 l 0
EndSplineSet
EndChar

StartChar: uni009B
Encoding: 155 155 107
Width: 426
VWidth: 0
Flags: HMW
LayerCount: 2
Fore
SplineSet
191 24 m 0
 152 -18 62 -18 26 18 c 0
 -17 61 -17 136 38 191 c 0
 100 253 193 253 228 204 c 0
 270 249 356 249 391 214 c 0
 410 195 410 160 390 140 c 0
 360 110 307 104 246 99 c 0
 239 78 240 45 256 29 c 0
 273 12 322 12 368 57 c 0
 383 43 l 0
 332 -22 229 -22 191 24 c 0
118 204 m 0
 93 179 50 53 81 22 c 0
 94 9 119 9 138 28 c 0
 163 53 206 179 175 210 c 0
 162 223 137 223 118 204 c 0
334 155 m 0
 358 179 358 197 345 210 c 0
 334 221 313 221 292 200 c 0
 273 181 256 144 252 122 c 0
 285 120 315 136 334 155 c 0
EndSplineSet
EndChar

StartChar: uni009C
Encoding: 156 156 108
Width: 250
VWidth: 0
Flags: HMW
LayerCount: 2
Fore
SplineSet
131 238 m 0
 72 238 56 202 33 225 c 0
 22 236 22 251 34 263 c 0
 57 286 72 248 135 252 c 0
 153 309 128 341 148 361 c 0
 159 372 178 372 189 361 c 0
 198 352 198 337 181 314 c 0
 165 294 159 282 149 252 c 0
 208 252 224 288 247 265 c 0
 258 254 258 239 246 227 c 0
 223 204 208 242 145 238 c 0
 137 204 138 172 148 146 c 0
 119 98 95 49 66 -73 c 0
 53 -73 l 0
 81 46 84 101 80 146 c 0
 109 176 123 213 131 238 c 0
EndSplineSet
EndChar

StartChar: uni009D
Encoding: 157 157 109
Width: 250
VWidth: 0
Flags: HMW
LayerCount: 2
Fore
SplineSet
148 148 m 0
 119 120 105 83 97 58 c 0
 156 58 172 94 195 71 c 0
 206 60 206 45 194 33 c 0
 171 10 156 48 93 44 c 0
 75 -13 100 -45 80 -65 c 0
 69 -76 50 -76 39 -65 c 0
 30 -56 30 -41 47 -18 c 0
 63 2 69 14 79 44 c 0
 20 44 4 8 -19 31 c 0
 -30 42 -30 57 -18 69 c 0
 5 92 20 54 83 58 c 0
 91 92 90 124 80 148 c 0
 109 176 123 213 131 238 c 0
 72 238 56 202 33 225 c 0
 22 236 22 251 34 263 c 0
 57 286 72 248 135 252 c 0
 153 309 128 341 148 361 c 0
 159 372 178 372 189 361 c 0
 198 352 198 337 181 314 c 0
 165 294 159 282 149 252 c 0
 208 252 224 288 247 265 c 0
 258 254 258 239 246 227 c 0
 223 204 208 242 145 238 c 0
 137 204 138 172 148 148 c 0
EndSplineSet
EndChar

StartChar: uni009E
Encoding: 158 158 110
Width: 342
VWidth: 0
Flags: HMW
LayerCount: 2
Fore
SplineSet
323 73 m 0
 308 51 301 39 280 18 c 0
 248 -14 201 -14 184 3 c 0
 173 14 171 41 177 61 c 0
 211 167 l 0
 218 189 227 205 196 205 c 0
 127 205 l 0
 109 115 83 12 55 -90 c 0
 -35 -103 l 0
 -6 -58 26 66 60 205 c 0
 8 205 l 0
 15 228 l 0
 66 228 l 0
 80 269 92 307 127 340 c 0
 165 378 262 378 295 346 c 0
 311 330 311 302 296 287 c 0
 281 272 263 272 248 283 c 0
 216 308 254 337 245 346 c 0
 237 354 204 354 188 338 c 0
 175 325 153 308 131 228 c 0
 202 228 l 0
 210 228 258 229 305 239 c 0
 252 62 l 0
 249 51 245 37 249 33 c 0
 256 26 276 38 307 85 c 0
 323 73 l 0
EndSplineSet
EndChar

StartChar: uni009F
Encoding: 159 159 111
Width: 342
VWidth: 0
Flags: HMW
LayerCount: 2
Fore
SplineSet
262 364 m 0
 341 369 l 0
 252 62 l 0
 249 51 245 37 249 33 c 0
 256 26 276 38 307 85 c 0
 323 73 l 0
 308 51 301 39 280 18 c 0
 248 -14 201 -14 184 3 c 0
 173 14 171 41 177 61 c 0
 244 290 l 0
 217 310 254 337 245 346 c 0
 237 354 204 354 188 338 c 0
 175 325 153 308 131 228 c 0
 194 228 l 0
 188 205 l 0
 127 205 l 0
 109 115 83 12 55 -90 c 0
 -35 -103 l 0
 -6 -58 26 66 60 205 c 0
 8 205 l 0
 14 228 l 0
 66 228 l 0
 80 269 92 307 127 340 c 0
 160 373 226 373 262 364 c 0
EndSplineSet
EndChar

StartChar: exclamdown
Encoding: 161 161 113
Width: 166
VWidth: 0
Flags: HMW
LayerCount: 2
Fore
SplineSet
70 261 m 0
 87 278 115 278 132 261 c 0
 149 244 149 216 132 199 c 0
 115 182 87 182 70 199 c 0
 53 216 53 244 70 261 c 0
95 159 m 0
 54 -1 79 -64 50 -93 c 0
 36 -107 8 -107 -6 -93 c 0
 -51 -48 22 4 72 166 c 0
 95 159 l 0
EndSplineSet
EndChar

StartChar: cent
Encoding: 162 162 114
Width: 287
VWidth: 0
Flags: HMW
LayerCount: 2
Fore
SplineSet
137 193 m 0
 105 161 69 57 114 25 c 0
 180 176 l 0
 188 197 215 195 198 212 c 0
 189 221 165 221 137 193 c 0
233 55 m 0
 200 10 158 -6 121 -8 c 0
 94 -70 l 0
 73 -70 l 0
 101 -7 l 0
 71 -4 55 3 36 22 c 0
 5 53 4 132 59 187 c 0
 116 244 165 244 205 235 c 0
 230 292 l 0
 251 292 l 0
 223 226 l 0
 265 202 264 160 242 138 c 0
 227 123 203 123 186 140 c 0
 133 20 l 0
 157 20 185 31 218 69 c 0
 233 55 l 0
EndSplineSet
EndChar

StartChar: sterling
Encoding: 163 163 115
Width: 287
VWidth: 0
Flags: HMW
LayerCount: 2
Fore
SplineSet
75 39 m 0
 48 62 25 62 15 52 c 0
 7 44 7 25 15 17 c 0
 28 4 62 4 75 39 c 0
263 333 m 0
 288 308 288 267 273 252 c 0
 256 235 233 235 221 247 c 0
 186 282 254 306 234 326 c 0
 221 339 193 339 174 320 c 0
 151 297 138 252 143 183 c 0
 215 183 l 0
 209 162 l 0
 143 162 l 0
 141 129 136 101 117 63 c 0
 172 46 212 46 235 69 c 0
 244 78 248 87 253 95 c 0
 270 85 l 0
 258 59 246 31 228 13 c 0
 198 -17 155 -17 95 24 c 0
 66 -15 21 -15 2 4 c 0
 -13 19 -13 50 6 69 c 0
 19 82 48 82 83 72 c 0
 87 90 81 135 74 162 c 0
 5 162 l 0
 11 183 l 0
 71 183 l 0
 65 246 80 288 112 320 c 0
 154 362 234 362 263 333 c 0
EndSplineSet
EndChar

StartChar: currency
Encoding: 164 164 116
Width: 287
VWidth: 0
Flags: HMW
LayerCount: 2
Fore
SplineSet
73 281 m 0
 117 314 174 314 220 281 c 0
 245 306 l 0
 273 278 l 0
 248 253 l 0
 281 211 281 154 249 108 c 0
 273 84 l 0
 245 55 l 0
 220 79 l 0
 176 47 119 47 73 80 c 0
 48 55 l 0
 20 83 l 0
 45 108 l 0
 12 154 12 211 45 253 c 0
 20 278 l 0
 48 306 l 0
 73 281 l 0
205 122 m 0
 239 156 239 206 205 240 c 0
 173 272 121 272 89 240 c 0
 55 206 55 156 89 122 c 0
 121 90 173 90 205 122 c 0
EndSplineSet
EndChar

StartChar: yen
Encoding: 165 165 117
Width: 287
VWidth: 0
Flags: HMW
LayerCount: 2
Fore
SplineSet
130 288 m 0
 164 174 l 0
 233 289 l 0
 252 319 233 335 200 332 c 0
 206 353 l 0
 318 353 l 0
 312 332 l 0
 287 329 283 328 266 300 c 0
 194 183 l 0
 274 183 l 0
 269 165 l 0
 183 165 l 0
 172 148 l 0
 166 119 l 0
 260 119 l 0
 255 101 l 0
 162 101 l 0
 152 55 l 0
 147 31 153 21 195 21 c 0
 189 0 l 0
 36 0 l 0
 42 21 l 0
 81 21 83 28 89 56 c 0
 99 101 l 0
 12 101 l 0
 17 119 l 0
 103 119 l 0
 110 148 l 0
 104 165 l 0
 26 165 l 0
 31 183 l 0
 99 183 l 0
 64 293 l 0
 55 322 50 334 14 332 c 0
 20 353 l 0
 161 353 l 0
 155 332 l 0
 115 332 121 316 130 288 c 0
EndSplineSet
EndChar

StartChar: brokenbar
Encoding: 166 166 118
Width: 303
VWidth: 0
Flags: HMW
LayerCount: 2
Fore
SplineSet
131 0 m 0
 131 144 l 0
 172 144 l 0
 172 0 l 0
 131 0 l 0
131 369 m 0
 172 369 l 0
 172 225 l 0
 131 225 l 0
 131 369 l 0
EndSplineSet
EndChar

StartChar: section
Encoding: 167 167 119
Width: 250
VWidth: 0
Flags: HMW
LayerCount: 2
Fore
SplineSet
129 72 m 0
 163 37 163 -15 130 -48 c 0
 96 -82 28 -82 -7 -47 c 0
 -24 -30 -24 0 -8 16 c 0
 1 25 25 25 37 13 c 0
 47 3 47 -15 36 -28 c 0
 28 -37 20 -39 28 -46 c 0
 44 -63 78 -63 97 -44 c 0
 114 -27 114 0 94 23 c 0
 32 94 l 0
 4 126 4 173 32 201 c 0
 49 218 72 229 104 224 c 0
 70 259 70 311 103 344 c 0
 137 378 205 378 240 343 c 0
 257 326 257 296 241 280 c 0
 232 271 208 271 196 283 c 0
 186 293 186 311 197 324 c 0
 205 333 213 335 205 342 c 0
 189 359 155 359 136 340 c 0
 119 323 119 296 139 273 c 0
 201 202 l 0
 229 170 229 123 201 95 c 0
 184 78 161 67 129 72 c 0
129 193 m 0
 105 217 76 217 60 201 c 0
 40 181 59 146 101 104 c 0
 125 80 154 80 170 96 c 0
 190 116 171 151 129 193 c 0
EndSplineSet
EndChar

StartChar: dieresis
Encoding: 168 168 120
Width: 166
VWidth: 0
Flags: HMW
LayerCount: 2
Fore
SplineSet
28 281 m 0
 13 296 13 318 28 333 c 0
 42 347 64 347 78 333 c 0
 93 318 93 296 78 281 c 0
 64 267 42 267 28 281 c 0
135 333 m 0
 149 347 171 347 185 333 c 0
 200 318 200 296 185 281 c 0
 171 267 149 267 135 281 c 0
 120 296 120 318 135 333 c 0
EndSplineSet
EndChar

StartChar: copyright
Encoding: 169 169 121
Width: 373
VWidth: 0
Flags: HMW
LayerCount: 2
Fore
SplineSet
67 319 m 0
 134 386 240 386 307 319 c 0
 380 246 380 115 307 42 c 0
 240 -25 134 -25 67 42 c 0
 -6 115 -6 246 67 319 c 0
90 63 m 0
 143 10 231 10 284 63 c 0
 347 126 347 235 284 298 c 0
 231 351 143 351 90 298 c 0
 27 235 27 126 90 63 c 0
164 250 m 0
 134 220 134 142 170 106 c 0
 189 87 225 87 245 125 c 0
 258 117 l 0
 230 65 156 65 125 96 c 0
 84 137 84 212 125 253 c 0
 156 284 202 284 254 263 c 0
 254 212 l 0
 236 212 l 0
 227 271 185 271 164 250 c 0
EndSplineSet
EndChar

StartChar: ordfeminine
Encoding: 170 170 122
Width: 206
VWidth: 0
Flags: HMW
LayerCount: 2
Fore
SplineSet
225 273 m 0
 189 209 126 209 131 250 c 0
 106 216 57 216 38 235 c 0
 13 260 13 304 51 342 c 0
 86 377 139 377 154 350 c 0
 159 365 l 0
 206 365 l 0
 176 267 l 0
 167 236 186 236 215 280 c 0
 225 273 l 0
99 342 m 0
 67 310 61 259 76 244 c 0
 82 238 101 238 115 252 c 0
 128 265 157 328 139 346 c 0
 129 356 113 356 99 342 c 0
19 181 m 0
 193 181 l 0
 189 164 l 0
 15 164 l 0
 19 181 l 0
EndSplineSet
EndChar

StartChar: guillemotleft
Encoding: 171 171 123
Width: 240
VWidth: 0
Flags: HMW
LayerCount: 2
Fore
SplineSet
109 193 m 0
 37 119 l 0
 76 44 l 0
 79 36 73 32 67 37 c 0
 -8 106 l 0
 -20 117 -20 119 -8 127 c 0
 100 202 l 0
 110 208 117 201 109 193 c 0
168 37 m 0
 93 106 l 0
 81 117 81 119 93 127 c 0
 201 202 l 0
 211 208 218 201 210 193 c 0
 138 119 l 0
 177 44 l 0
 180 36 174 32 168 37 c 0
EndSplineSet
EndChar

StartChar: logicalnot
Encoding: 172 172 124
Width: 303
VWidth: 0
Flags: HMW
LayerCount: 2
Fore
SplineSet
21 201 m 0
 273 201 l 0
 273 60 l 0
 224 60 l 0
 224 152 l 0
 21 152 l 0
 21 201 l 0
EndSplineSet
EndChar

StartChar: uni00AD
Encoding: 173 173 125
Width: 166
VWidth: 0
Flags: HMW
LayerCount: 2
Fore
SplineSet
5 89 m 0
 21 149 l 0
 136 149 l 0
 119 89 l 0
 5 89 l 0
EndSplineSet
EndChar

StartChar: registered
Encoding: 174 174 126
Width: 373
VWidth: 0
Flags: HMW
LayerCount: 2
Fore
SplineSet
90 63 m 0
 143 10 231 10 284 63 c 0
 347 126 347 235 284 298 c 0
 231 351 143 351 90 298 c 0
 27 235 27 126 90 63 c 0
67 42 m 0
 -6 115 -6 246 67 319 c 0
 134 386 240 386 307 319 c 0
 380 246 380 115 307 42 c 0
 240 -25 134 -25 67 42 c 0
159 187 m 0
 172 183 194 184 207 197 c 0
 224 214 224 247 209 262 c 0
 195 276 169 276 159 272 c 0
 159 187 l 0
257 111 m 0
 262 100 267 96 275 96 c 0
 275 86 l 0
 255 86 l 0
 238 86 232 86 225 93 c 0
 216 102 207 151 193 165 c 0
 184 174 176 174 159 174 c 0
 159 107 l 0
 159 100 161 96 178 96 c 0
 178 86 l 0
 99 86 l 0
 99 96 l 0
 123 96 123 101 123 107 c 0
 123 264 l 0
 123 275 116 275 99 275 c 0
 99 285 l 0
 191 285 l 0
 219 285 228 281 244 266 c 0
 258 252 258 215 239 196 c 0
 229 186 219 183 207 181 c 0
 220 180 228 172 236 155 c 0
 257 111 l 0
EndSplineSet
EndChar

StartChar: macron
Encoding: 175 175 127
Width: 166
VWidth: 0
Flags: HMW
LayerCount: 2
Fore
SplineSet
16 324 m 0
 193 324 l 0
 193 286 l 0
 16 286 l 0
 16 324 l 0
EndSplineSet
EndChar

StartChar: degree
Encoding: 176 176 128
Width: 200
VWidth: 0
Flags: HMW
LayerCount: 2
Fore
SplineSet
138 304 m 0
 123 320 98 320 83 304 c 0
 68 289 68 264 83 249 c 0
 98 234 123 234 138 249 c 0
 153 264 153 289 138 304 c 0
58 329 m 0
 89 360 133 360 163 329 c 0
 193 299 193 255 163 225 c 0
 133 194 89 194 58 225 c 0
 28 255 28 299 58 329 c 0
EndSplineSet
EndChar

StartChar: plusminus
Encoding: 177 177 129
Width: 303
VWidth: 0
Flags: HMW
LayerCount: 2
Fore
SplineSet
21 186 m 0
 123 186 l 0
 123 253 l 0
 172 253 l 0
 172 186 l 0
 273 186 l 0
 273 137 l 0
 172 137 l 0
 172 70 l 0
 123 70 l 0
 123 137 l 0
 21 137 l 0
 21 186 l 0
21 0 m 0
 21 49 l 0
 273 49 l 0
 273 0 l 0
 21 0 l 0
EndSplineSet
EndChar

StartChar: uni00B2
Encoding: 178 178 130
Width: 172
VWidth: 0
Flags: HMW
LayerCount: 2
Fore
SplineSet
157 216 m 0
 169 211 l 0
 141 141 l 0
 -8 141 l 0
 -13 163 71 217 100 246 c 0
 138 284 138 311 123 326 c 0
 111 338 77 338 63 324 c 0
 44 305 68 302 76 294 c 0
 85 285 85 268 77 260 c 0
 67 250 51 250 38 263 c 0
 25 276 25 307 48 330 c 0
 78 360 139 360 167 332 c 0
 186 313 186 284 158 256 c 0
 129 227 66 206 41 181 c 0
 107 181 l 0
 123 181 138 176 157 216 c 0
EndSplineSet
EndChar

StartChar: uni00B3
Encoding: 179 179 131
Width: 172
VWidth: 0
Flags: HMW
LayerCount: 2
Fore
SplineSet
70 331 m 0
 57 318 98 306 75 283 c 0
 67 275 50 275 40 285 c 0
 30 295 30 316 45 331 c 0
 74 360 135 360 162 333 c 0
 178 317 178 289 159 270 c 0
 146 257 131 252 114 248 c 0
 125 244 137 241 147 230 c 0
 163 214 163 187 141 165 c 0
 104 128 37 128 10 155 c 0
 -5 170 -5 198 6 209 c 0
 18 221 33 221 45 209 c 0
 52 202 52 190 44 182 c 0
 38 176 20 170 32 158 c 0
 42 148 77 148 94 165 c 0
 107 178 115 221 102 234 c 0
 88 248 73 239 68 239 c 0
 49 239 49 258 68 258 c 0
 74 258 90 246 113 269 c 0
 133 289 133 318 120 331 c 0
 108 343 82 343 70 331 c 0
EndSplineSet
EndChar

StartChar: acute
Encoding: 180 180 132
Width: 166
VWidth: 0
Flags: HMW
LayerCount: 2
Fore
SplineSet
172 315 m 0
 83 268 l 0
 62 268 l 0
 131 344 l 0
 168 387 208 334 172 315 c 0
EndSplineSet
EndChar

StartChar: mu
Encoding: 181 181 133
Width: 342
VWidth: 0
Flags: HMW
LayerCount: 2
Fore
SplineSet
54 172 m 0
 61 197 61 210 17 210 c 0
 23 231 l 0
 144 239 l 0
 91 56 l 0
 79 15 112 15 147 50 c 0
 169 72 191 116 198 143 c 0
 225 231 l 0
 299 231 l 0
 249 62 l 0
 246 51 242 37 246 33 c 0
 253 26 274 41 303 82 c 0
 319 70 l 0
 306 51 298 39 277 18 c 0
 245 -14 198 -14 181 3 c 0
 170 14 167 32 172 53 c 0
 124 -20 49 -20 24 13 c 0
 6 -30 6 -39 6 -65 c 0
 6 -112 -47 -113 -47 -78 c 0
 -47 -54 -7 -21 3 11 c 0
 54 172 l 0
EndSplineSet
EndChar

StartChar: paragraph
Encoding: 182 182 134
Width: 325
VWidth: 0
Flags: HMW
LayerCount: 2
Fore
SplineSet
117 254 m 0
 110 230 115 211 145 213 c 0
 182 348 l 0
 153 350 137 336 131 310 c 0
 117 254 l 0
53 214 m 0
 26 241 26 297 65 336 c 0
 90 361 118 369 148 369 c 0
 331 369 l 0
 325 348 l 0
 288 348 l 0
 203 21 l 0
 242 21 l 0
 236 0 l 0
 50 0 l 0
 56 21 l 0
 95 21 l 0
 141 197 l 0
 108 193 74 193 53 214 c 0
128 21 m 0
 169 21 l 0
 256 348 l 0
 215 348 l 0
 128 21 l 0
EndSplineSet
EndChar

StartChar: periodcentered
Encoding: 183 183 135
Width: 143
VWidth: 0
Flags: HMW
LayerCount: 2
Fore
SplineSet
95 97 m 0
 77 79 51 79 33 97 c 0
 15 115 15 141 33 159 c 0
 51 177 77 177 95 159 c 0
 113 141 113 115 95 97 c 0
EndSplineSet
EndChar

StartChar: cedilla
Encoding: 184 184 136
Width: 166
VWidth: 0
Flags: HMW
LayerCount: 2
Fore
SplineSet
30 -57 m 0
 22 -49 8 -48 -4 -52 c 0
 -16 -43 l 0
 21 3 l 0
 40 3 l 0
 15 -31 l 0
 33 -28 55 -30 67 -42 c 0
 83 -58 83 -77 69 -91 c 0
 45 -115 -13 -115 -44 -96 c 0
 -32 -77 l 0
 5 -91 18 -91 29 -80 c 0
 36 -73 36 -63 30 -57 c 0
EndSplineSet
EndChar

StartChar: uni00B9
Encoding: 185 185 137
Width: 172
VWidth: 0
Flags: HMW
LayerCount: 2
Fore
SplineSet
100 293 m 0
 106 316 104 317 68 317 c 0
 58 317 l 0
 62 332 l 0
 87 331 124 335 150 353 c 0
 162 353 l 0
 111 180 l 0
 105 159 111 156 146 156 c 0
 142 141 l 0
 11 141 l 0
 15 156 l 0
 28 156 l 0
 55 156 59 157 65 179 c 0
 100 293 l 0
EndSplineSet
EndChar

StartChar: ordmasculine
Encoding: 186 186 138
Width: 178
VWidth: 0
Flags: HMW
LayerCount: 2
Fore
SplineSet
98 347 m 0
 81 330 59 256 75 240 c 0
 84 231 102 231 117 246 c 0
 138 267 152 339 139 352 c 0
 130 361 112 361 98 347 c 0
175 354 m 0
 199 330 199 284 168 253 c 0
 129 214 64 214 39 239 c 0
 17 261 16 308 48 340 c 0
 85 377 152 377 175 354 c 0
19 181 m 0
 177 181 l 0
 173 164 l 0
 15 164 l 0
 19 181 l 0
EndSplineSet
EndChar

StartChar: guillemotright
Encoding: 187 187 139
Width: 240
VWidth: 0
Flags: HMW
LayerCount: 2
Fore
SplineSet
33 195 m 0
 30 203 36 207 42 202 c 0
 117 133 l 0
 129 122 129 120 117 112 c 0
 9 37 l 0
 -1 31 -8 38 0 46 c 0
 72 120 l 0
 33 195 l 0
137 195 m 0
 134 203 140 207 146 202 c 0
 221 133 l 0
 233 122 233 120 221 112 c 0
 113 37 l 0
 103 31 96 38 104 46 c 0
 176 120 l 0
 137 195 l 0
EndSplineSet
EndChar

StartChar: onequarter
Encoding: 188 188 140
Width: 430
VWidth: 0
Flags: HMW
LayerCount: 2
Fore
SplineSet
68 317 m 0
 58 317 l 0
 62 332 l 0
 87 331 124 335 150 353 c 0
 162 353 l 0
 111 170 l 0
 105 149 111 146 146 146 c 0
 142 131 l 0
 11 131 l 0
 15 146 l 0
 28 146 l 0
 55 146 59 147 65 169 c 0
 100 293 l 0
 106 316 104 317 68 317 c 0
395 15 m 0
 390 0 l 0
 269 0 l 0
 273 15 l 0
 313 15 312 13 323 58 c 0
 233 58 l 0
 233 74 l 0
 384 222 l 0
 414 222 l 0
 374 77 l 0
 414 77 l 0
 408 58 l 0
 369 58 l 0
 361 31 351 11 395 15 c 0
311 353 m 0
 345 353 l 0
 128 -8 l 0
 94 -8 l 0
 311 353 l 0
259 77 m 0
 328 77 l 0
 354 167 l 0
 259 77 l 0
EndSplineSet
EndChar

StartChar: onehalf
Encoding: 189 189 141
Width: 430
VWidth: 0
Flags: HMW
LayerCount: 2
Fore
SplineSet
65 169 m 0
 100 293 l 0
 106 316 104 317 68 317 c 0
 58 317 l 0
 62 332 l 0
 87 331 124 335 150 353 c 0
 162 353 l 0
 111 170 l 0
 105 149 111 146 146 146 c 0
 142 131 l 0
 11 131 l 0
 15 146 l 0
 28 146 l 0
 55 146 59 147 65 169 c 0
406 75 m 0
 418 70 l 0
 390 0 l 0
 241 0 l 0
 236 22 320 78 349 107 c 0
 387 145 387 180 372 195 c 0
 360 207 326 207 312 193 c 0
 293 174 317 171 325 163 c 0
 334 154 334 137 326 129 c 0
 316 119 300 119 287 132 c 0
 274 145 274 176 297 199 c 0
 327 229 388 229 416 201 c 0
 435 182 435 145 407 117 c 0
 378 88 315 65 290 40 c 0
 356 40 l 0
 372 40 387 35 406 75 c 0
311 353 m 0
 345 353 l 0
 128 -8 l 0
 94 -8 l 0
 311 353 l 0
EndSplineSet
EndChar

StartChar: threequarters
Encoding: 190 190 142
Width: 430
VWidth: 0
Flags: HMW
LayerCount: 2
Fore
SplineSet
324 58 m 0
 234 58 l 0
 234 74 l 0
 385 222 l 0
 415 222 l 0
 375 77 l 0
 415 77 l 0
 409 58 l 0
 370 58 l 0
 362 31 352 11 396 15 c 0
 391 0 l 0
 270 0 l 0
 274 15 l 0
 314 15 313 13 324 58 c 0
68 254 m 0
 74 254 90 242 113 265 c 0
 133 285 133 318 120 331 c 0
 108 343 82 343 70 331 c 0
 57 318 98 306 75 283 c 0
 67 275 50 275 40 285 c 0
 30 295 30 316 45 331 c 0
 74 360 135 360 162 333 c 0
 178 317 178 285 159 266 c 0
 146 253 131 248 114 244 c 0
 125 240 137 237 147 226 c 0
 163 210 163 177 141 155 c 0
 104 118 37 118 10 145 c 0
 -5 160 -5 188 6 199 c 0
 18 211 33 211 45 199 c 0
 52 192 52 180 44 172 c 0
 38 166 20 160 32 148 c 0
 42 138 77 138 94 155 c 0
 107 168 115 217 102 230 c 0
 88 244 73 235 68 235 c 0
 49 235 49 254 68 254 c 0
94 -8 m 0
 311 353 l 0
 345 353 l 0
 128 -8 l 0
 94 -8 l 0
329 77 m 0
 355 167 l 0
 260 77 l 0
 329 77 l 0
EndSplineSet
EndChar

StartChar: questiondown
Encoding: 191 191 143
Width: 240
VWidth: 0
Flags: HMW
LayerCount: 2
Fore
SplineSet
108 261 m 0
 125 278 153 278 170 261 c 0
 187 244 187 216 170 199 c 0
 153 182 125 182 108 199 c 0
 91 216 91 244 108 261 c 0
132 37 m 0
 109 14 82 6 59 -17 c 0
 41 -35 41 -59 53 -71 c 0
 68 -86 99 -86 121 -64 c 0
 137 -48 146 -26 146 8 c 0
 169 8 l 0
 170 -25 162 -56 140 -78 c 0
 107 -111 51 -111 21 -81 c 0
 -6 -54 -6 13 24 43 c 0
 57 76 86 73 110 97 c 0
 119 106 119 122 111 130 c 0
 100 141 70 136 57 99 c 0
 36 108 l 0
 63 171 118 168 145 141 c 0
 168 118 168 73 132 37 c 0
EndSplineSet
EndChar

StartChar: AE
Encoding: 198 198 150
Width: 444
VWidth: 0
Flags: HMW
LayerCount: 2
Fore
SplineSet
227 322 m 0
 232 342 221 342 210 325 c 0
 103 162 l 0
 183 162 l 0
 227 322 l 0
6 65 m 0
 147 277 l 0
 170 312 171 338 109 337 c 0
 116 361 l 0
 453 361 l 0
 433 234 l 0
 410 237 l 0
 408 312 391 337 342 337 c 0
 316 337 311 325 304 300 c 0
 276 199 l 0
 324 199 338 207 359 255 c 0
 381 255 l 0
 336 94 l 0
 314 94 l 0
 326 166 299 175 270 175 c 0
 238 62 l 0
 230 32 233 24 264 24 c 0
 335 24 364 47 409 127 c 0
 433 122 l 0
 399 0 l 0
 98 0 l 0
 104 24 l 0
 144 24 147 31 155 61 c 0
 176 136 l 0
 86 136 l 0
 42 69 l 0
 23 41 37 21 75 24 c 0
 68 0 l 0
 -41 0 l 0
 -35 24 l 0
 -21 29 -10 40 6 65 c 0
EndSplineSet
EndChar

StartChar: Ccedilla
Encoding: 199 199 151
Width: 379
VWidth: 0
Flags: HMW
LayerCount: 2
Fore
SplineSet
168 -8 m 0
 133 -7 90 5 62 34 c 0
 0 96 0 216 87 303 c 0
 171 387 289 387 329 325 c 0
 356 361 l 0
 380 361 l 0
 348 212 l 0
 326 214 l 0
 326 247 320 301 295 326 c 0
 267 354 216 354 181 319 c 0
 130 268 75 100 134 41 c 0
 165 10 231 10 279 58 c 0
 293 72 303 92 308 101 c 0
 339 101 l 0
 301 19 251 -4 187 -8 c 0
 171 -31 l 0
 189 -28 211 -30 223 -42 c 0
 239 -58 239 -77 225 -91 c 0
 201 -115 143 -115 112 -96 c 0
 124 -77 l 0
 161 -91 174 -91 185 -80 c 0
 192 -73 192 -63 186 -57 c 0
 178 -49 164 -48 152 -52 c 0
 140 -43 l 0
 168 -8 l 0
EndSplineSet
EndChar

StartChar: Eth
Encoding: 208 208 160
Width: 416
VWidth: 0
Flags: HMW
LayerCount: 2
Fore
SplineSet
34 61 m 0
 69 185 l 0
 12 185 l 0
 18 207 l 0
 75 207 l 0
 100 299 l 0
 107 324 107 337 53 337 c 0
 60 361 l 0
 250 361 l 0
 312 361 338 346 362 322 c 0
 421 263 410 134 337 61 c 0
 291 15 234 0 172 0 c 0
 -23 0 l 0
 -17 24 l 0
 23 24 26 31 34 61 c 0
117 62 m 0
 109 32 112 24 143 24 c 0
 193 24 215 29 241 55 c 0
 306 120 330 276 289 317 c 0
 271 335 241 337 221 337 c 0
 195 337 190 325 183 300 c 0
 157 207 l 0
 234 207 l 0
 228 185 l 0
 151 185 l 0
 117 62 l 0
EndSplineSet
EndChar

StartChar: multiply
Encoding: 215 215 167
Width: 303
VWidth: 0
Flags: HMW
LayerCount: 2
Fore
SplineSet
54 252 m 0
 147 159 l 0
 240 252 l 0
 273 219 l 0
 180 126 l 0
 273 33 l 0
 240 0 l 0
 147 93 l 0
 54 0 l 0
 21 33 l 0
 114 126 l 0
 21 219 l 0
 54 252 l 0
EndSplineSet
EndChar

StartChar: Oslash
Encoding: 216 216 168
Width: 416
VWidth: 0
Flags: HMW
LayerCount: 2
Fore
SplineSet
237 49 m 0
 289 101 324 243 307 293 c 0
 108 47 l 0
 133 4 192 4 237 49 c 0
182 321 m 0
 126 265 92 113 101 73 c 0
 299 317 l 0
 274 359 220 359 182 321 c 0
326 57 m 0
 248 -21 136 -21 83 16 c 0
 37 -41 l 0
 9 -41 l 0
 66 29 l 0
 -9 84 8 222 90 304 c 0
 167 381 268 381 325 349 c 0
 356 388 l 0
 384 388 l 0
 343 337 l 0
 429 268 410 141 326 57 c 0
EndSplineSet
EndChar

StartChar: Thorn
Encoding: 222 222 174
Width: 370
VWidth: 0
Flags: HMW
LayerCount: 2
Fore
SplineSet
130 101 m 0
 179 96 205 99 228 122 c 0
 266 160 266 225 244 247 c 0
 232 259 217 259 202 259 c 0
 174 259 170 247 163 222 c 0
 130 101 l 0
185 300 m 0
 180 283 l 0
 218 283 l 0
 280 283 295 276 318 253 c 0
 352 219 352 153 316 117 c 0
 275 76 239 76 123 76 c 0
 119 62 l 0
 111 32 114 24 166 24 c 0
 159 0 l 0
 -21 0 l 0
 -15 24 l 0
 25 24 28 31 36 61 c 0
 102 299 l 0
 109 324 109 337 55 337 c 0
 62 361 l 0
 239 361 l 0
 231 337 l 0
 195 337 192 325 185 300 c 0
EndSplineSet
EndChar

StartChar: germandbls
Encoding: 223 223 175
Width: 287
VWidth: 0
Flags: HMW
LayerCount: 2
Fore
SplineSet
153 199 m 0
 141 200 141 218 152 217 c 0
 158 217 167 212 180 225 c 0
 197 242 210 323 190 343 c 0
 179 354 164 354 151 342 c 0
 114 304 104 52 53 -90 c 0
 -33 -103 l 0
 42 43 38 275 105 342 c 0
 141 378 208 378 241 345 c 0
 269 317 269 262 241 234 c 0
 222 215 199 213 177 205 c 0
 193 198 207 196 227 176 c 0
 265 138 265 68 224 27 c 0
 183 -14 130 -14 104 1 c 0
 111 25 l 0
 120 9 142 9 154 21 c 0
 168 35 201 162 172 191 c 0
 166 197 157 199 153 199 c 0
EndSplineSet
EndChar

StartChar: aring
Encoding: 229 229 181
Width: 333
VWidth: 0
Flags: HMW
LayerCount: 2
Fore
SplineSet
214 339 m 0
 203 350 185 350 174 339 c 0
 163 328 163 310 174 299 c 0
 185 288 203 288 214 299 c 0
 225 310 225 328 214 339 c 0
156 357 m 0
 178 379 210 379 232 357 c 0
 254 335 254 303 232 281 c 0
 210 259 178 259 156 281 c 0
 134 303 134 335 156 357 c 0
EndSplineSet
Refer: 65 97 N 1 0 0 1 0 0 0
EndChar

StartChar: ae
Encoding: 230 230 182
Width: 407
VWidth: 0
Flags: HMW
LayerCount: 2
Fore
SplineSet
160 104 m 0
 137 102 97 102 77 82 c 0
 61 66 61 44 74 31 c 0
 83 22 110 22 132 44 c 0
 151 63 152 85 160 104 c 0
214 201 m 0
 260 250 339 249 373 215 c 0
 392 196 392 161 372 141 c 0
 342 111 289 104 228 99 c 0
 221 78 222 45 238 29 c 0
 255 12 304 12 350 57 c 0
 365 43 l 0
 314 -24 192 -24 156 38 c 0
 113 -18 30 -17 4 9 c 0
 -16 29 -16 61 9 86 c 0
 39 116 92 121 166 128 c 0
 175 163 182 186 164 204 c 0
 145 223 108 223 97 212 c 0
 90 205 122 180 96 154 c 0
 84 142 57 142 44 155 c 0
 30 169 30 197 50 218 c 0
 81 248 180 250 214 201 c 0
274 201 m 0
 254 181 242 154 234 122 c 0
 267 120 297 137 316 156 c 0
 340 180 340 198 327 211 c 0
 316 222 295 222 274 201 c 0
EndSplineSet
EndChar

StartChar: ccedilla
Encoding: 231 231 183
Width: 268
VWidth: 0
Flags: HMW
LayerCount: 2
Fore
SplineSet
92 -8 m 0
 68 -3 47 -2 23 22 c 0
 -8 53 -9 132 46 187 c 0
 110 251 188 251 225 214 c 0
 250 189 250 159 229 138 c 0
 214 123 190 123 173 140 c 0
 160 153 160 172 177 189 c 0
 181 193 199 198 185 212 c 0
 176 221 152 221 124 193 c 0
 92 161 66 59 96 29 c 0
 112 13 156 13 205 69 c 0
 220 55 l 0
 193 15 141 -8 111 -8 c 0
 95 -31 l 0
 113 -28 135 -30 147 -42 c 0
 163 -58 163 -77 149 -91 c 0
 125 -115 67 -115 36 -96 c 0
 48 -77 l 0
 85 -91 98 -91 109 -80 c 0
 116 -73 116 -63 110 -57 c 0
 102 -49 88 -48 76 -52 c 0
 64 -43 l 0
 92 -8 l 0
EndSplineSet
EndChar

StartChar: igrave
Encoding: 236 236 188
Width: 194
VWidth: 0
Flags: HMW
LayerCount: 2
Fore
SplineSet
172 73 m 0
 157 51 150 39 129 18 c 0
 97 -14 50 -14 33 3 c 0
 22 14 20 41 26 61 c 0
 61 172 l 0
 68 197 68 210 14 210 c 0
 20 231 l 0
 154 239 l 0
 101 62 l 0
 98 51 94 37 98 33 c 0
 105 26 125 38 156 85 c 0
 172 73 l 0
EndSplineSet
Refer: 64 96 N 1 0 0 1 6 0 0
EndChar

StartChar: eth
Encoding: 240 240 192
Width: 287
VWidth: 0
Flags: HMW
LayerCount: 2
Fore
SplineSet
189 237 m 0
 185 256 180 278 170 294 c 0
 133 269 l 0
 120 287 l 0
 158 312 l 0
 148 327 131 343 117 349 c 0
 117 369 l 0
 147 362 169 350 187 332 c 0
 229 361 l 0
 242 343 l 0
 203 317 l 0
 285 218 291 105 226 40 c 0
 166 -20 74 -20 36 18 c 0
 -7 61 -7 135 49 191 c 0
 93 235 145 243 189 237 c 0
185 210 m 0
 172 223 148 223 128 203 c 0
 101 176 61 52 91 22 c 0
 104 9 129 9 149 29 c 0
 170 50 217 178 185 210 c 0
EndSplineSet
EndChar

StartChar: divide
Encoding: 247 247 199
Width: 303
VWidth: 0
Flags: HMW
LayerCount: 2
Fore
SplineSet
169 198 m 0
 157 186 137 186 125 198 c 0
 112 211 112 231 125 244 c 0
 137 256 157 256 169 244 c 0
 182 231 182 211 169 198 c 0
169 55 m 0
 182 42 182 22 169 9 c 0
 157 -3 137 -3 125 9 c 0
 112 22 112 42 125 55 c 0
 137 67 157 67 169 55 c 0
21 152 m 0
 273 152 l 0
 273 103 l 0
 21 103 l 0
 21 152 l 0
EndSplineSet
EndChar

StartChar: oslash
Encoding: 248 248 200
Width: 287
VWidth: 0
Flags: HMW
LayerCount: 2
Fore
SplineSet
47 190 m 0
 100 243 163 243 194 235 c 0
 224 289 l 0
 247 289 l 0
 214 228 l 0
 286 195 286 100 227 41 c 0
 174 -12 115 -12 81 -4 c 0
 48 -63 l 0
 25 -63 l 0
 61 2 l 0
 -12 40 -12 131 47 190 c 0
94 19 m 0
 102 11 130 11 148 29 c 0
 173 54 205 161 194 193 c 0
 94 19 l 0
127 203 m 0
 102 178 70 69 81 38 c 0
 181 212 l 0
 173 221 145 221 127 203 c 0
EndSplineSet
EndChar

StartChar: thorn
Encoding: 254 254 206
Width: 324
VWidth: 0
Flags: HMW
LayerCount: 2
Fore
SplineSet
174 32 m 0
 184 42 246 164 209 201 c 0
 197 213 175 213 156 194 c 0
 128 166 83 62 120 25 c 0
 132 13 155 13 174 32 c 0
109 -82 m 0
 103 -103 l 0
 -59 -103 l 0
 -53 -82 l 0
 -23 -82 -13 -80 -6 -55 c 0
 80 260 l 0
 87 285 87 298 33 298 c 0
 39 319 l 0
 173 327 l 0
 137 196 l 0
 167 250 239 250 273 216 c 0
 306 183 306 94 242 30 c 0
 192 -20 116 -20 91 27 c 0
 71 -45 l 0
 61 -77 66 -80 109 -82 c 0
EndSplineSet
EndChar

